<svg width="20" height="24" viewBox="0 0 20 24" fill="none" xmlns="http://www.w3.org/2000/svg">
<path d="M3.33317 5.99988H1.6665V19.9999C1.6665 21.0999 2.4165 21.9999 3.33317 21.9999H14.9998V19.9999H3.33317V5.99988ZM16.6665 1.99988H6.6665C5.74984 1.99988 4.99984 2.89988 4.99984 3.99988V15.9999C4.99984 17.0999 5.74984 17.9999 6.6665 17.9999H16.6665C17.5832 17.9999 18.3332 17.0999 18.3332 15.9999V3.99988C18.3332 2.89988 17.5832 1.99988 16.6665 1.99988ZM16.6665 15.9999H6.6665V3.99988H16.6665V15.9999ZM8.33317 8.99988H14.9998V10.9999H8.33317V8.99988ZM8.33317 11.9999H11.6665V13.9999H8.33317V11.9999ZM8.33317 5.99988H14.9998V7.99988H8.33317V5.99988Z" fill="black"/>
</svg>
