<svg width="120" height="120" viewBox="0 0 120 120" fill="none" xmlns="http://www.w3.org/2000/svg">
<path d="M71.7505 15.0001H93.2411C97.6594 15.0001 101.241 18.5818 101.241 23.0001V26.7964H71.7505V15.0001Z" fill="black"/>
<path d="M26.9248 25.0001C26.9248 19.4772 31.402 15.0001 36.9248 15.0001H93.8685C93.8685 15.0001 90.1555 15.1274 87.6755 17.3594C84.7264 20.0135 85.3162 26.1328 85.3162 26.1328V37.2655V59.5309V95.0618C85.3162 100.032 81.2868 104.062 76.3162 104.062H26.9248V25.0001Z" fill="#E7E3FC"/>
<path d="M11 92.2655H69.6863C69.6863 92.2655 69.1506 96.8283 70.571 99.3433C72.1262 102.097 77.059 104.062 77.059 104.062H20C15.0294 104.062 11 100.032 11 95.0618V92.2655Z" fill="black"/>
<rect x="35" y="37" width="43" height="4" rx="2" fill="white"/>
<rect x="35" y="48.2065" width="43.0563" height="3.53887" rx="1.76944" fill="white"/>
<rect x="35" y="60.0029" width="43.0563" height="3.53887" rx="1.76944" fill="white"/>
<rect x="35" y="71.7988" width="27.1314" height="3.53887" rx="1.76944" fill="white"/>
<circle cx="77.4511" cy="59.4511" r="25.4511" fill="black"/>
<circle cx="77.4511" cy="59.4512" r="12.7256" fill="white"/>
<rect x="92.626" y="67.0864" width="29.2688" height="13.3618" rx="6.68092" transform="rotate(45 92.626 67.0864)" fill="black"/>
</svg>
