<svg width="68" height="68" viewBox="0 0 68 68" fill="none" xmlns="http://www.w3.org/2000/svg">
<rect width="68" height="68" rx="8" fill="#EFF9FE"/>
<path d="M40.783 16.4001H49.5792C51.2361 16.4001 52.5792 17.7433 52.5792 19.4001V21.1186H40.783V16.4001Z" fill="#465660"/>
<path d="M22.8525 20.4001C22.8525 18.191 24.6434 16.4001 26.8525 16.4001H49.63C49.63 16.4001 48.1448 16.4511 47.1528 17.3438C45.9732 18.4055 46.2091 20.8532 46.2091 20.8532V25.3063V34.2125V48.0248C46.2091 50.2339 44.4182 52.0248 42.2091 52.0248H22.8525V20.4001Z" fill="#D9D9D9"/>
<path d="M27.8832 32H25.9999L28.8695 24H31.1343L33.9999 32H32.1166L30.0344 25.8281H29.9694L27.8832 32ZM27.7655 28.8555H32.214V30.1758H27.7655V28.8555Z" fill="#00A7EA"/>
<path d="M16.4828 47.3062H39.9573C39.9573 47.3062 39.743 49.1313 40.3112 50.1373C40.9333 51.2387 42.9064 52.0247 42.9064 52.0247H20.4828C18.2737 52.0247 16.4828 50.2338 16.4828 48.0247V47.3062Z" fill="#465660"/>
<rect x="36" y="28" width="7" height="2" rx="1" fill="white"/>
<rect x="26.3916" y="34.4429" width="17.2225" height="2" rx="1" fill="white"/>
<rect x="26.3916" y="41" width="10.8525" height="2" rx="1" fill="white"/>
</svg>
