<svg width="68" height="68" viewBox="0 0 68 68" fill="none" xmlns="http://www.w3.org/2000/svg">
<rect width="68" height="68" rx="8" fill="#EFF9FE"/>
<circle cx="28.25" cy="41.75" r="11.25" fill="#64DBBD"/>
<path d="M26.1187 46H24L27.2283 37H29.7763L33 46H30.8813L28.5388 39.0566H28.4658L26.1187 46ZM25.9863 42.4624H30.9909V43.9478H25.9863V42.4624Z" fill="white"/>
<circle cx="39.5" cy="26.25" r="11.25" fill="#FF5753"/>
<path d="M35 22.853H44V28.1991H42.6288V24.1097H36.3168V28.2524H35V22.853ZM35.6856 26.3994H43.3906V27.656H35.6856V26.3994ZM38.7763 21H40.1584V31H38.7763V21Z" fill="white"/>
<path opacity="0.1" fill-rule="evenodd" clip-rule="evenodd" d="M39.5 37.5C45.7132 37.5 50.75 32.4632 50.75 26.25C50.75 20.0368 45.7132 15 39.5 15V37.5Z" fill="black"/>
</svg>
