<svg width="68" height="68" viewBox="0 0 68 68" fill="none" xmlns="http://www.w3.org/2000/svg">
<rect width="68" height="68" rx="8" fill="#EFF9FE"/>
<mask id="mask0_56774_30630" style="mask-type:alpha" maskUnits="userSpaceOnUse" x="15" y="15" width="38" height="38">
<circle cx="34" cy="34" r="19" fill="#D9D9D9"/>
</mask>
<g mask="url(#mask0_56774_30630)">
<circle cx="34" cy="34" r="19" fill="#42A2F4"/>
<circle cx="33.8217" cy="36.0819" r="4.94521" fill="#FFE353"/>
<circle cx="33.9958" cy="50.9177" r="8.84932" fill="#8C492C"/>
<path d="M40.0522 16.1702L42.2886 14.6792C42.4871 14.5468 42.707 14.4515 42.939 14.3958C44.4844 14.0245 47.0134 13.3705 47.0134 13.1777C47.0134 12.9174 54.0408 24.3695 54.0408 25.6709C54.0408 26.4503 54.1381 32.1417 54.2234 36.9556C54.2536 38.6614 52.2715 39.6202 50.9532 38.5372L47.175 35.4337C47.0676 35.3455 46.9697 35.2463 46.8828 35.1377L45.9514 33.9735C45.3577 33.2313 45.3683 32.1738 45.9767 31.4437L46.6659 30.6167C47.1453 30.0414 47.0676 29.1863 46.4923 28.7069C46.1649 28.4341 45.7284 28.331 45.3136 28.4286L42.212 29.1584C41.7813 29.2597 41.3292 29.2154 40.9264 29.0323L39.2485 28.2696C38.8837 28.1038 38.5869 27.8178 38.4077 27.4593C37.8918 26.4275 38.4982 25.1876 39.6294 24.9614L40.0075 24.8858C40.729 24.7414 41.2168 24.0647 41.1255 23.3345C41.0645 22.8462 40.7522 22.4254 40.3024 22.2255L40.1508 22.1581C39.3521 21.8031 39.0113 20.8532 39.4022 20.0714C39.6071 19.6617 39.618 19.1818 39.4319 18.7631L39.3522 18.5837C38.9666 17.7161 39.2622 16.6968 40.0522 16.1702Z" fill="#84C4B5"/>
<path d="M27.4326 16.8458L25.858 14.0902C25.3197 13.1482 24.1286 12.8072 23.1733 13.3216L15.2463 17.59C14.9153 17.7682 14.6413 18.0361 14.4556 18.3629L8.68364 28.5215C8.39735 29.0254 8.34233 29.6249 8.53532 30.1713C10.697 36.2922 14.5412 47.1368 14.7398 47.534C14.92 47.8945 16.414 46.1999 17.4312 44.9503C17.714 44.6028 17.863 44.1671 17.863 43.7189V41.0271V38.5244C17.863 38.1817 18.1409 37.9038 18.4836 37.9038C18.9291 37.9038 19.2295 37.4483 19.054 37.0388L19.005 36.9245C18.8229 36.4996 19.0937 36.0176 19.5514 35.9523L19.811 35.9152C20.2009 35.8595 20.5098 35.5577 20.5745 35.1692L20.9863 32.6983L21.3396 31.5209C21.5934 30.6749 22.372 30.0956 23.2552 30.0956H23.8783C24.5042 30.0956 25.0821 29.7602 25.3926 29.2168C25.7225 28.6395 26.352 28.3 27.0157 28.3414L29.4221 28.4918C29.8538 28.5188 30.2785 28.3742 30.604 28.0894C31.4047 27.3887 31.3363 26.1227 30.4646 25.5126L30.0719 25.2377C29.7507 25.0128 29.5166 24.6844 29.4089 24.3074L29.3623 24.1443C29.1803 23.5073 28.5981 23.0682 27.9357 23.0682C27.1163 23.0682 26.4521 22.404 26.4521 21.5846V21.0194C26.4521 20.6569 26.5506 20.3013 26.7371 19.9904L27.4111 18.8671C27.7833 18.2468 27.7915 17.4739 27.4326 16.8458Z" fill="#84C4B5"/>
</g>
</svg>
