<svg width="18" height="18" viewBox="0 0 18 18" fill="none" xmlns="http://www.w3.org/2000/svg">
<circle cx="9" cy="9" r="9" fill="#F1F1F1"/>
<path d="M10.719 6.366L11.871 6.699C10.737 9.939 8.64 11.829 5.418 12.837C5.292 12.567 4.95 12.045 4.734 11.784C7.848 10.965 9.783 9.3 10.719 6.366ZM7.245 6.438C8.154 9.102 10.098 11.019 13.302 11.739C13.041 11.991 12.69 12.504 12.519 12.819C9.144 11.937 7.29 9.876 6.165 6.762L7.245 6.438ZM4.896 5.781H13.14V6.843H4.896V5.781ZM8.433 4.359H9.549V6.429H8.433V4.359Z" fill="#3B403F"/>
</svg>
