<svg width="18" height="18" viewBox="0 0 18 18" fill="none" xmlns="http://www.w3.org/2000/svg">
<circle cx="9" cy="9" r="9" fill="white"/>
<path d="M8.71562 11.0283V12H4.94121V11.0283H8.71562ZM5.28789 4.89062V12H4.0623V4.89062H5.28789ZM8.22246 7.85938V8.81641H4.94121V7.85938H8.22246ZM8.69121 4.89062V5.86719H4.94121V4.89062H8.69121ZM10.8664 7.84473V12H9.68965V6.7168H10.798L10.8664 7.84473ZM10.6564 9.16309L10.2756 9.1582C10.2788 8.78385 10.3309 8.44043 10.4318 8.12793C10.536 7.81543 10.6792 7.54688 10.8615 7.32227C11.0471 7.09766 11.2684 6.92513 11.5256 6.80469C11.7827 6.68099 12.0692 6.61914 12.385 6.61914C12.6389 6.61914 12.8684 6.65495 13.0734 6.72656C13.2818 6.79492 13.4592 6.90723 13.6057 7.06348C13.7554 7.21973 13.8693 7.42318 13.9475 7.67383C14.0256 7.92122 14.0646 8.22559 14.0646 8.58691V12H12.883V8.58203C12.883 8.32812 12.8456 8.12793 12.7707 7.98145C12.6991 7.83171 12.5933 7.72591 12.4533 7.66406C12.3166 7.59896 12.1457 7.56641 11.9406 7.56641C11.7388 7.56641 11.5581 7.60872 11.3986 7.69336C11.2391 7.77799 11.104 7.89355 10.9934 8.04004C10.8859 8.18652 10.8029 8.35579 10.7443 8.54785C10.6857 8.73991 10.6564 8.94499 10.6564 9.16309Z" fill="#068DA5"/>
</svg>
