<svg width="60" height="27" viewBox="0 0 60 27" fill="none" xmlns="http://www.w3.org/2000/svg">
<path d="M12.464 10.9833L7.19079 8.3653C6.80728 8.18122 6.80728 7.58808 7.19079 7.404L12.464 4.78601V0H0.767018C0.345158 0 0 0.368155 0 0.818122V25.7708C0 26.2208 0.345158 26.589 0.767018 26.589H12.464V10.9833Z" fill="url(#paint0_linear_55906_1752)"/>
<path d="M16.9132 8.57003C16.4529 9.16317 15.8201 9.75631 14.9956 10.3699C15.5325 9.18362 16.2612 7.09741 17.1433 4.11126C17.22 3.80447 17.3734 3.37495 17.5651 2.82272C17.7377 2.18867 17.8911 1.82052 18.0062 1.71826C18.1787 1.59554 18.2938 1.53418 18.4088 1.53418C18.5239 1.53418 18.6965 1.61599 19.0033 1.77962C19.3676 1.98415 19.7128 2.08641 20.0388 2.06596L18.7732 5.07255L19.4827 5.05211C19.8853 4.62259 20.1922 4.41806 20.4414 4.41806C20.614 4.41806 20.7866 4.52033 20.94 4.72486C21.0934 4.92939 21.2276 5.27709 21.381 5.72705L18.4472 5.78841C17.8911 7.0565 17.3734 7.97689 16.9132 8.57003ZM22.0522 19.8601L18.1979 24.2984C18.0253 24.4825 17.8336 24.5643 17.6035 24.5643C17.2775 24.5643 16.9707 24.3802 16.6831 24.0325C16.3954 23.6644 16.2228 23.2144 16.1461 22.6826L17.8719 21.8645V15.4832H16.2804C15.9927 15.6059 15.8202 15.6672 15.7435 15.6672C15.6476 15.6672 15.5517 15.6059 15.475 15.4832C15.3983 15.3604 15.3024 15.1355 15.1874 14.7878H17.8911V10.3494H17.1433C16.8556 10.4722 16.6639 10.5335 16.6063 10.5335C16.5105 10.5335 16.4146 10.4722 16.3379 10.3494C16.2612 10.2267 16.1653 10.0017 16.0503 9.65404H19.4827C19.8853 9.22453 20.1922 9.01999 20.4414 9.01999C20.614 9.01999 20.7866 9.12225 20.94 9.32678C21.0934 9.53132 21.2276 9.87902 21.3619 10.329H19.5018V14.7673H19.9237C20.3264 14.3378 20.6332 14.1333 20.8825 14.1333C21.0551 14.1333 21.2276 14.2355 21.381 14.44C21.5344 14.6446 21.6687 14.9923 21.8029 15.4423H19.5018V21.0668L22.0522 19.8601ZM31.8125 11.8425H33.2698C33.6725 11.413 33.9793 11.2085 34.2286 11.2085C34.4012 11.2085 34.5737 11.3107 34.7271 11.5153C34.8805 11.7198 35.0148 12.0675 35.149 12.5175H31.8125V14.8082H32.848C33.2506 14.3787 33.5575 14.1742 33.8067 14.1742C33.9793 14.1742 34.1519 14.2764 34.3053 14.481C34.4587 14.6855 34.5929 15.0332 34.7271 15.4832H31.8125V17.5489H34.056C34.4587 17.1194 34.7655 16.9149 35.0148 16.9149C35.1874 16.9149 35.3599 17.0171 35.5133 17.2217C35.6667 17.4262 35.801 17.7739 35.9352 18.2239H29.5498C29.4155 18.3057 29.3005 18.4079 29.1854 18.5102C29.0704 18.6125 28.9553 18.6943 28.8211 18.7966L28.3225 19.1852C29.4347 19.9828 30.5085 20.6373 31.5632 21.1896L32.9246 19.3692C33.2123 18.8375 33.4999 18.5716 33.7684 18.5716C34.0944 18.5716 34.4587 18.9602 34.823 19.7374L31.9275 21.3941C33.2506 22.0895 36.7022 23.5008 36.7022 23.5008C36.7022 23.5008 35.2832 23.6848 34.7655 24.1962C34.3628 24.6052 34.382 24.7893 33.615 24.7893C33.4232 24.7893 33.1356 24.6461 32.637 24.2984C31.6974 23.5007 28.7444 20.3305 28.0349 19.3897C27.1337 20.0442 26.4625 20.4328 25.7339 20.76C25.753 20.8214 25.753 20.9237 25.753 21.0668V22.5599L28.591 21.8441L25.2545 24.4007C24.9285 24.7893 24.6792 24.9734 24.3724 24.9734C23.9314 24.9734 23.5287 24.3802 23.1835 23.1735L24.1423 22.9281V21.2918C23.3369 21.5168 22.4549 21.66 21.5153 21.7418C22.474 21.2509 23.2602 20.8009 23.893 20.4123C24.5258 20.0237 25.1394 19.5738 25.7339 19.0624L26.405 18.5102L26.8077 18.2034H22.2439C21.9563 18.3261 21.7837 18.3875 21.707 18.3875C21.6111 18.3875 21.5153 18.3261 21.4386 18.2034C21.3619 18.0807 21.266 17.8557 21.1509 17.508H25.312V15.4423H23.3753C23.0877 15.565 22.9151 15.6263 22.8384 15.6263C22.7425 15.6263 22.6466 15.565 22.5699 15.4423C22.4932 15.3195 22.3973 15.0945 22.2823 14.7468H25.3312V12.4561H23.011C22.7233 12.5788 22.5507 12.6402 22.474 12.6402C22.3782 12.6402 22.2823 12.5788 22.2056 12.4561C22.1289 12.3334 22.033 12.1084 21.918 11.7607H25.3503H31.8125V11.8425ZM22.4165 4.99074C22.3206 4.99074 22.2248 4.92939 22.1481 4.80667C22.0714 4.68395 21.9755 4.45897 21.8604 4.11126H33.941C34.3436 3.68175 34.6504 3.47722 34.8997 3.47722C35.0723 3.47722 35.2449 3.57948 35.3983 3.78401C35.5517 3.98854 35.6859 4.33625 35.8202 4.78621H22.9726C22.6658 4.92938 22.474 4.99074 22.4165 4.99074ZM27.8623 10.3085C27.8623 10.3085 27.8623 10.6153 27.5747 10.7585C27.2871 10.9017 25.638 11.6789 25.638 11.6789H25.4654L26.2516 10.3494V10.1654H24.3916C24.334 10.3494 24.1998 10.4722 23.9889 10.5131C23.7971 10.554 23.3945 10.5744 22.8192 10.5744V6.11566C23.1068 6.11566 23.3753 6.11566 23.5862 6.09521C23.6821 6.07475 23.8163 6.07476 23.9506 6.07476C24.104 6.07476 24.1998 6.09521 24.2765 6.13611C24.3341 6.17702 24.3916 6.25884 24.3916 6.38155H26.1941C26.3858 6.15657 26.5392 5.99294 26.6543 5.91113C26.7693 5.82932 26.8652 5.78841 26.9611 5.78841C27.057 5.78841 27.172 5.84977 27.3254 5.99294C27.4597 6.11566 27.6322 6.29974 27.824 6.52472V10.3085H27.8623ZM26.2516 9.46996V7.07696H24.5258L24.4491 7.09741V9.46996H26.2516ZM34.1327 10.3085C34.1327 10.3085 34.1327 10.6153 33.8451 10.7585C33.5574 10.9017 31.9084 11.6789 31.9084 11.6789H31.7358L32.522 10.3494V10.1654H30.662C30.6044 10.3494 30.4702 10.4722 30.2593 10.5131C30.0675 10.554 29.6648 10.5744 29.0896 10.5744V6.11566C29.3772 6.11566 29.6456 6.11566 29.8566 6.09521C29.9525 6.07475 30.0867 6.07476 30.2209 6.07476C30.3743 6.07476 30.4702 6.09521 30.5469 6.13611C30.6044 6.17702 30.662 6.25884 30.662 6.38155H32.4645C32.6562 6.15657 32.8096 5.99294 32.9246 5.91113C33.0397 5.82932 33.1356 5.78841 33.2315 5.78841C33.3274 5.78841 33.4424 5.84977 33.5958 5.99294C33.73 6.11566 33.9026 6.29974 34.0944 6.52472V10.3085H34.1327ZM32.5411 9.46996V7.07696H30.8153L30.7387 7.09741V9.46996H32.5411ZM27.0953 2.22958C26.7693 1.98415 26.2708 1.75916 25.6188 1.53418C26.6735 1.53418 27.4213 1.57509 27.8815 1.6569C28.3417 1.73871 28.7444 1.90233 29.1088 2.14777C29.5498 2.45457 29.7799 2.84317 29.7799 3.25223C29.7799 3.49767 29.7032 3.7022 29.5498 3.86583C29.3964 4.02945 29.2238 4.11126 29.0129 4.11126C28.6869 4.11126 28.3801 3.90673 28.0924 3.47722L27.9007 3.10907C27.6898 2.76136 27.4213 2.47502 27.0953 2.22958ZM26.8844 14.8287H30.2017V12.5379H26.8844V14.8287ZM26.8844 17.5694H30.2017V15.5036H26.8844V17.5694Z" fill="#1B1B1B"/>
<path d="M47.2485 22.9076C47.1909 23.0303 47.0567 23.1326 46.865 23.1735C46.6732 23.2144 46.2897 23.2349 45.7336 23.2349V22.069H42.0327V23.8894C42.0327 24.278 41.9944 24.5438 41.9369 24.6666C41.8793 24.7893 41.7451 24.8916 41.5534 24.9325C41.3616 24.9734 40.9781 24.9938 40.422 24.9938V12.047H39.4824C39.1948 12.1698 39.0222 12.2311 38.9455 12.2311C38.8496 12.2311 38.7537 12.1698 38.677 12.047C38.6003 11.9243 38.5045 11.6993 38.3894 11.3516H40.4412V8.4064C40.7288 8.4064 40.9781 8.4064 41.1507 8.38595C41.3233 8.3655 41.4767 8.3655 41.5917 8.3655C41.7643 8.3655 41.8985 8.4064 41.9561 8.48821C42.0136 8.57003 42.0519 8.73366 42.0519 8.97909V11.3721H45.7528V8.42686C46.0404 8.42686 46.2897 8.42685 46.4623 8.4064C46.6349 8.38594 46.7883 8.38595 46.9033 8.38595C47.0759 8.38595 47.2101 8.42685 47.2676 8.50866C47.3252 8.59047 47.3635 8.7541 47.3635 8.99954V11.3925H47.4211C47.8237 10.963 48.1689 10.7585 48.4757 10.7585C48.9167 10.7585 49.2811 11.188 49.5304 12.0675H47.3635V22.1304C47.3443 22.519 47.306 22.7849 47.2485 22.9076ZM42.5313 6.99514C42.5313 7.28149 42.4354 7.44511 42.2053 7.48602C41.9752 7.52692 41.5342 7.54737 40.9014 7.54737V2.37276C41.074 2.39321 41.2849 2.39321 41.5534 2.39321C41.7259 2.39321 41.8985 2.39321 42.0327 2.37276C42.167 2.3523 42.282 2.3523 42.3396 2.3523C42.4354 2.3523 42.493 2.39321 42.5121 2.45457C42.5313 2.51593 42.5313 2.7 42.5313 2.94544V5.68614H48.284V1.57509C48.5716 1.57509 48.8209 1.57509 48.9934 1.55463C49.166 1.53418 49.3194 1.53418 49.4345 1.53418C49.6071 1.53418 49.7413 1.57509 49.7988 1.6569C49.8563 1.73871 49.8947 1.90233 49.8947 2.14777V5.7066H55.7048V2.33185C55.8774 2.3523 56.0884 2.3523 56.3568 2.3523C56.5294 2.3523 56.702 2.3523 56.8362 2.33185C56.9704 2.31139 57.0855 2.31139 57.143 2.31139C57.2389 2.31139 57.2964 2.3523 57.3156 2.41366C57.3348 2.47502 57.3348 2.6591 57.3348 2.90454V6.44291C57.3348 6.52472 57.3348 6.7088 57.3539 6.99514C57.3539 7.28149 57.2581 7.44511 57.028 7.48602C56.7978 7.52692 56.3568 7.54737 55.724 7.54737V6.38155H42.5505V6.44291C42.5121 6.52472 42.5121 6.7088 42.5313 6.99514ZM42.0136 12.047V16.5058H45.7144V12.047H42.0136ZM45.7336 21.3941V17.2012H42.0327V21.3941H45.7336ZM56.3184 21.0055C57.3347 22.0895 58.562 22.9894 60.0001 23.6644C59.7125 23.6644 59.5016 23.6848 59.3673 23.7666C59.2331 23.828 59.0989 23.9712 58.9838 24.1757C58.6962 24.687 58.3702 24.9325 58.0442 24.9325C57.8908 24.9325 57.7374 24.8711 57.5457 24.7484C56.7787 24.1552 55.9925 23.2349 55.2255 22.0077C54.4584 20.7805 53.8448 19.267 53.423 17.508C53.0203 18.7965 52.445 20.0033 51.6972 21.1487C50.9302 22.294 50.1056 23.2144 49.2044 23.9507C48.3031 24.6666 47.4211 25.0552 46.5773 25.0756C48.1689 24.2575 49.4728 22.9485 50.4508 21.1282C51.4287 19.3079 52.0615 17.0785 52.3491 14.4196L52.5026 13.1106C52.9436 13.172 53.2887 13.1924 53.5188 13.1924C53.7681 13.1924 53.9215 13.2129 53.9982 13.2538C54.0749 13.2947 54.1133 13.3969 54.1133 13.5606L54.0558 14.0514L53.9407 15.0332C53.8832 15.6263 53.7873 16.2195 53.6531 16.8331C54.3817 18.5102 55.283 19.901 56.3184 21.0055ZM56.3184 11.1267C56.5677 10.5335 57.1047 10.3903 57.3923 10.3903C58.1401 10.3903 58.3511 11.1471 58.8688 11.5562L55.3022 16.1172L56.2226 11.7403H51.793C51.3904 12.5788 50.911 13.3151 50.3549 13.9492C49.7796 14.5832 48.9743 15.2582 47.9388 16.0149C48.7058 14.481 49.2619 13.2333 49.607 12.2516C49.9522 11.2698 50.259 9.96083 50.4891 8.34504C50.6042 7.85417 50.911 7.60874 51.4095 7.60874C51.678 7.60874 51.9848 7.67009 52.3491 7.77236C52.7326 7.85417 52.9436 7.89507 53.0203 7.89507C53.1162 7.89507 53.1929 7.89508 53.2696 7.87462L52.9052 8.93818C52.5025 10.104 52.2149 10.8403 52.0807 11.1471H56.3184V11.1267Z" fill="#1B1B1B"/>
<path d="M2.10986 4.07016C2.10986 3.84518 2.14821 3.6202 2.20574 3.43612C2.26327 3.25204 2.35915 3.08842 2.4742 2.9657C2.58925 2.84298 2.74264 2.74072 2.91522 2.65891C3.0878 2.59755 3.27956 2.55664 3.49049 2.55664C3.72059 2.55664 3.91236 2.59755 4.10411 2.67936C4.29587 2.76117 4.44927 2.86344 4.5835 3.00661C4.71773 3.14978 4.8136 3.3134 4.8903 3.49748C4.96701 3.68156 5.00535 3.90654 5.00535 4.13153C5.00535 4.29515 4.98619 4.43832 4.94784 4.58149C4.90949 4.72466 4.83279 4.88829 4.75608 5.05191L4.98618 5.13373V5.27689H4.06575V5.07236C4.29586 5.011 4.46844 4.90874 4.60267 4.76557C4.7369 4.6224 4.79443 4.41787 4.79443 4.17243C4.79443 3.86563 4.67938 3.64065 4.46845 3.47703C4.25752 3.3134 3.9507 3.23159 3.56719 3.23159C3.18368 3.23159 2.89606 3.3134 2.68513 3.47703C2.4742 3.64065 2.37832 3.86563 2.37832 4.17243C2.37832 4.39741 2.43584 4.56104 2.53171 4.68376C2.64677 4.80647 2.781 4.86783 2.97276 4.86783C3.08781 4.86783 3.16452 4.82693 3.22205 4.76557C3.27957 4.70421 3.29875 4.60194 3.31793 4.45877H3.47132V5.72686H3.31793C3.31793 5.60414 3.29875 5.50188 3.24122 5.46098C3.18369 5.42007 3.08782 5.37916 2.95359 5.37916H2.4742C2.4742 5.3178 2.4742 5.2769 2.4742 5.23599C2.4742 5.19508 2.45503 5.15418 2.45503 5.11327C2.43586 5.07237 2.43585 5.03146 2.3975 4.99055C2.37832 4.94965 2.33997 4.88829 2.30162 4.80648C2.16739 4.6224 2.10986 4.37696 2.10986 4.07016Z" fill="white"/>
<path d="M3.70131 6.91338C3.70131 7.07701 3.7013 7.22018 3.72048 7.32245C3.73965 7.42471 3.75881 7.50653 3.77799 7.56788C3.81634 7.62924 3.85471 7.67014 3.91223 7.6906C3.96976 7.71105 4.04645 7.73151 4.14233 7.75197V7.89513H3.06851V7.75197C3.16439 7.73151 3.24108 7.71105 3.2986 7.6906C3.35613 7.67014 3.3945 7.62924 3.43285 7.56788C3.4712 7.50653 3.49036 7.42471 3.49036 7.3429C3.49036 7.26109 3.50955 7.11792 3.50955 6.95429H2.76171C2.685 6.95429 2.62748 6.97475 2.56995 6.9952C2.51242 7.01565 2.47406 7.05656 2.43571 7.09747C2.39736 7.15883 2.3782 7.22018 2.35903 7.302C2.33985 7.38381 2.33983 7.48607 2.33983 7.60879C2.33983 7.75196 2.35902 7.87468 2.3782 7.97695C2.39737 8.07921 2.43572 8.16103 2.47407 8.22238C2.5316 8.28374 2.58913 8.3451 2.66583 8.38601C2.74253 8.42691 2.85758 8.46782 2.97263 8.48827V8.65189L2.12891 8.59054V5.93164H2.28232C2.28232 6.01345 2.30149 6.09526 2.30149 6.13617C2.32067 6.19753 2.33985 6.23844 2.35903 6.25889C2.39738 6.27934 2.43572 6.29979 2.47407 6.32025C2.5316 6.3407 2.58912 6.3407 2.685 6.3407H4.37245C4.44915 6.3407 4.52585 6.3407 4.58337 6.32025C4.6409 6.29979 4.67925 6.2998 4.69842 6.25889C4.73677 6.23844 4.75596 6.19753 4.75596 6.15663C4.77513 6.11572 4.77513 6.05436 4.77513 5.97255H4.92852V8.42691L4.21903 8.44736V8.28374C4.31491 8.26329 4.4108 8.24283 4.46832 8.20192C4.52585 8.16102 4.58336 8.12012 4.62171 8.05876C4.66007 7.9974 4.69842 7.91558 4.69842 7.83377C4.7176 7.73151 4.71759 7.62924 4.71759 7.48607V7.0361C4.71759 6.97474 4.7176 6.93384 4.69842 6.91338C4.67925 6.89293 4.6409 6.89294 4.58337 6.89294H3.70131V6.91338Z" fill="white"/>
<path d="M2.81923 11.0245L4.94772 11.9244V13.0698H4.79431C4.79431 12.988 4.79431 12.9062 4.77514 12.8653C4.75596 12.8039 4.73678 12.763 4.69843 12.7426C4.66008 12.7221 4.60255 12.7017 4.52585 12.6812C4.44915 12.6812 4.37244 12.6608 4.25739 12.6608H2.83842C2.72337 12.6608 2.62749 12.6608 2.55079 12.6812C2.47409 12.7017 2.41656 12.7221 2.37821 12.7426C2.33986 12.7835 2.32068 12.8244 2.3015 12.8857C2.28233 12.9471 2.28233 13.0289 2.28233 13.1107H2.12892V11.6381H2.28233C2.28233 11.7404 2.3015 11.8017 2.3015 11.8631C2.32068 11.9245 2.33986 11.9654 2.37821 12.0063C2.41656 12.0472 2.47407 12.0676 2.5316 12.0676C2.58912 12.0881 2.68501 12.0881 2.80006 12.0881H4.50668V12.0676L2.09058 11.0245V10.7382L4.50668 9.65417V9.63371H2.81923C2.70418 9.63371 2.6083 9.63371 2.5316 9.65417C2.4549 9.67462 2.39739 9.69507 2.35904 9.71552C2.32069 9.75643 2.30151 9.79734 2.28233 9.8587C2.26316 9.92006 2.26316 10.0019 2.26316 10.0837H2.10975V8.87695H2.26316C2.26316 8.97922 2.28233 9.06103 2.28233 9.10193C2.30151 9.16329 2.32069 9.2042 2.35904 9.24511C2.39739 9.28601 2.4549 9.30646 2.51243 9.30646C2.56995 9.32692 2.66583 9.32691 2.78089 9.32691H4.25739C4.35327 9.32691 4.44915 9.32692 4.50668 9.30646C4.58338 9.28601 4.62174 9.28601 4.66009 9.24511C4.69844 9.22465 4.73677 9.18374 4.73677 9.12238C4.73677 9.06102 4.75597 8.99966 4.75597 8.91785H4.90936V10.1041L2.81923 11.0245Z" fill="white"/>
<path d="M2.81923 15.4825L4.94772 16.3825V17.5278H4.79431C4.79431 17.446 4.79431 17.3642 4.77514 17.3233C4.75596 17.2619 4.73678 17.221 4.69843 17.2006C4.66008 17.1801 4.60255 17.1597 4.52585 17.1392C4.44915 17.1392 4.37244 17.1188 4.25739 17.1188H2.83842C2.72337 17.1188 2.62749 17.1188 2.55079 17.1392C2.47409 17.1597 2.41656 17.1801 2.37821 17.2006C2.33986 17.2415 2.32068 17.2824 2.3015 17.3438C2.28233 17.4051 2.28233 17.4869 2.28233 17.5687H2.12892V16.0961H2.28233C2.28233 16.1984 2.3015 16.2597 2.3015 16.3211C2.32068 16.3825 2.33986 16.4234 2.37821 16.4643C2.41656 16.5052 2.47407 16.5256 2.5316 16.5256C2.58912 16.5461 2.68501 16.5461 2.80006 16.5461H4.50668V16.5256L2.09058 15.4825V15.1962L4.50668 14.1122V14.0917H2.81923C2.70418 14.0917 2.6083 14.0917 2.5316 14.1122C2.4549 14.1326 2.39739 14.1531 2.35904 14.1735C2.32069 14.2144 2.30151 14.2553 2.28233 14.3167C2.26316 14.3781 2.26316 14.4599 2.26316 14.5417H2.10975V13.335H2.26316C2.26316 13.4372 2.28233 13.519 2.28233 13.5599C2.30151 13.6213 2.32069 13.6622 2.35904 13.7031C2.39739 13.744 2.4549 13.7645 2.51243 13.7645C2.56995 13.7849 2.66583 13.7849 2.78089 13.7849H4.25739C4.35327 13.7849 4.44915 13.7849 4.50668 13.7645C4.58338 13.744 4.62174 13.744 4.66009 13.7031C4.69844 13.6827 4.73677 13.6418 4.73677 13.5804C4.75595 13.519 4.75597 13.4577 4.75597 13.3759H4.90936V14.5621L2.81923 15.4825Z" fill="white"/>
<path d="M3.70131 18.8168C3.70131 18.9804 3.7013 19.1236 3.72048 19.2258C3.73965 19.3281 3.75881 19.4099 3.77799 19.4713C3.81634 19.5326 3.85471 19.5735 3.91223 19.594C3.96976 19.6144 4.04645 19.6349 4.14233 19.6553V19.7985H3.06851V19.6553C3.16439 19.6349 3.24108 19.6144 3.2986 19.594C3.35613 19.5735 3.3945 19.5326 3.43285 19.4713C3.4712 19.4099 3.49036 19.3281 3.49036 19.2463C3.49036 19.144 3.50955 19.0213 3.50955 18.8577H2.76171C2.685 18.8577 2.62748 18.8781 2.56995 18.8986C2.51242 18.919 2.47406 18.9599 2.43571 19.0008C2.39736 19.0622 2.3782 19.1236 2.35903 19.2054C2.33985 19.2872 2.33983 19.3895 2.33983 19.5122C2.33983 19.6553 2.35902 19.7781 2.3782 19.8803C2.39737 19.9826 2.43572 20.0644 2.47407 20.1258C2.5316 20.1871 2.58913 20.2485 2.66583 20.2894C2.74253 20.3303 2.85758 20.3712 2.97263 20.3917V20.5553L2.12891 20.4939V17.8555H2.28232C2.28232 17.9373 2.30149 18.0191 2.30149 18.06C2.32067 18.1214 2.33985 18.1623 2.35903 18.1827C2.39738 18.2032 2.43572 18.2236 2.47407 18.2441C2.5316 18.2645 2.58912 18.2645 2.685 18.2645H4.37245C4.44915 18.2645 4.52585 18.2645 4.58337 18.2441C4.6409 18.2236 4.67925 18.2236 4.69842 18.1827C4.73677 18.1623 4.75596 18.1214 4.75596 18.0805C4.77513 18.0396 4.77513 17.9782 4.77513 17.8964H4.92852V20.3507L4.21903 20.3712V20.2076C4.31491 20.1871 4.4108 20.1667 4.46832 20.1258C4.52585 20.0849 4.58336 20.0439 4.62171 19.9826C4.66007 19.9212 4.69842 19.8394 4.69842 19.7576C4.7176 19.6553 4.71759 19.5531 4.71759 19.4099V18.9599C4.71759 18.8986 4.7176 18.8577 4.69842 18.8372C4.67925 18.8168 4.6409 18.8168 4.58337 18.8168H3.70131Z" fill="white"/>
<path d="M2.14808 20.8008H2.30149C2.30149 20.8826 2.30149 20.9644 2.32066 21.0053C2.33984 21.0667 2.35902 21.1076 2.3782 21.128C2.41655 21.1485 2.45489 21.1689 2.49324 21.1894C2.55077 21.2098 2.60829 21.2098 2.70417 21.2098H4.39162C4.46832 21.2098 4.54502 21.2098 4.60254 21.1894C4.66007 21.1894 4.69842 21.1689 4.71759 21.1485C4.75594 21.128 4.77513 21.0871 4.77513 21.0462C4.7943 21.0053 4.7943 20.944 4.7943 20.8621H4.94771V22.3348C4.94771 22.5802 4.90934 22.8052 4.83264 23.0302C4.75594 23.2347 4.66007 23.4188 4.52584 23.5824C4.39161 23.7256 4.2382 23.8483 4.06562 23.9505C3.89304 24.0324 3.70129 24.0733 3.49036 24.0733C3.2986 24.0733 3.10687 24.0324 2.93429 23.9505C2.76171 23.8687 2.62747 23.7665 2.51242 23.6233C2.39736 23.4801 2.30149 23.2961 2.22478 23.112C2.16726 22.9074 2.12891 22.6825 2.12891 22.4575V20.8008H2.14808ZM4.73676 21.8439C4.73676 21.803 4.7176 21.7825 4.67925 21.7825H2.78088C2.64665 21.7825 2.5316 21.8234 2.47407 21.9257C2.39737 22.028 2.3782 22.1711 2.3782 22.3552C2.3782 22.7029 2.47407 22.9483 2.66583 23.1324C2.85758 23.3165 3.14522 23.3983 3.50955 23.3983C3.70131 23.3983 3.87388 23.3779 4.02728 23.3165C4.18068 23.2756 4.31491 23.1938 4.41079 23.112C4.50667 23.0302 4.60255 22.9074 4.66008 22.7643C4.71761 22.6211 4.73676 22.4779 4.73676 22.3143V21.8439Z" fill="white"/>
<defs>
<linearGradient id="paint0_linear_55906_1752" x1="-2.03659" y1="22.3665" x2="22.2113" y2="-0.420204" gradientUnits="userSpaceOnUse">
<stop stop-color="#50C98C"/>
<stop offset="0.4986" stop-color="#8BBBB7"/>
<stop offset="1" stop-color="#84C4B5"/>
</linearGradient>
</defs>
</svg>
