<svg width="164" height="65" viewBox="0 0 164 65" fill="none" xmlns="http://www.w3.org/2000/svg">
<path d="M32.1756 26.593L18.5628 20.2543C17.5728 19.8086 17.5728 18.3725 18.5628 17.9268L32.1756 11.5881V0.000118256H1.98004C0.891017 0.000118256 0 0.8915 0 1.98097V62.3968C0 63.4863 0.891017 64.3777 1.98004 64.3777H32.1756V26.593Z" fill="black"/>
<path d="M32.1756 26.593L18.5628 20.2543C17.5728 19.8086 17.5728 18.3725 18.5628 17.9268L32.1756 11.5881V0.000118256H1.98004C0.891017 0.000118256 0 0.8915 0 1.98097V62.3968C0 63.4863 0.891017 64.3777 1.98004 64.3777H32.1756V26.593Z" fill="url(#paint0_linear_56799_3894)"/>
<path d="M44.0483 19.2883C42.7671 20.9144 41.0054 22.5404 38.71 24.2225C40.2047 20.9704 42.2333 15.2513 44.6889 7.06499C44.9024 6.22393 45.3295 5.04645 45.8633 3.53255C46.3437 1.79436 46.7708 0.7851 47.0911 0.504748C47.5716 0.168326 47.8919 0.000118256 48.2122 0.000118256C48.5325 0.000118256 49.0129 0.224407 49.867 0.67297C50.8813 1.23367 51.8422 1.51402 52.7497 1.45795L49.2265 9.70029L51.2016 9.64423C52.3226 8.46675 53.1768 7.90604 53.8707 7.90604C54.3512 7.90604 54.8316 8.1864 55.2587 8.7471C55.6858 9.3078 56.0595 10.261 56.4865 11.4945L48.3189 11.6627C46.7708 15.1391 45.3295 17.6623 44.0483 19.2883ZM58.3549 50.2392L47.625 62.4064C47.1445 62.9111 46.6107 63.1353 45.9701 63.1353C45.0626 63.1353 44.2084 62.6307 43.4077 61.6775C42.6069 60.6683 42.1265 59.4347 41.9129 57.9769L46.7174 55.7341V38.2401H42.2867C41.4859 38.5765 41.0054 38.7447 40.7919 38.7447C40.525 38.7447 40.2581 38.5765 40.0445 38.2401C39.831 37.9037 39.5641 37.2869 39.2438 36.3337H46.7708V24.1664H44.6889C43.8882 24.5029 43.3543 24.6711 43.1941 24.6711C42.9272 24.6711 42.6603 24.5029 42.4468 24.1664C42.2332 23.83 41.9663 23.2133 41.646 22.2601H51.2016C52.3226 21.0826 53.1768 20.5219 53.8707 20.5219C54.3512 20.5219 54.8316 20.8022 55.2587 21.3629C55.6858 21.9236 56.0595 22.8768 56.4332 24.1104H51.255V36.2777H52.4294C53.5505 35.1002 54.4046 34.5395 55.0986 34.5395C55.579 34.5395 56.0595 34.8198 56.4865 35.3805C56.9136 35.9412 57.2872 36.8944 57.6609 38.128H51.255V53.5473L58.3549 50.2392ZM85.5269 28.2596H89.584C90.705 27.0821 91.5592 26.5214 92.2531 26.5214C92.7336 26.5214 93.214 26.8018 93.6411 27.3625C94.0681 27.9232 94.4419 28.8764 94.8156 30.1099H85.5269V36.3898H88.4096C89.5306 35.2123 90.3848 34.6516 91.0787 34.6516C91.5592 34.6516 92.0396 34.932 92.4667 35.4927C92.8937 36.0534 93.2674 37.0066 93.6411 38.2401H85.5269V43.9032H91.7727C92.8937 42.7257 93.7479 42.165 94.4418 42.165C94.9223 42.165 95.4027 42.4454 95.8298 43.0061C96.2568 43.5668 96.6306 44.52 97.0042 45.7535H79.2277C78.854 45.9778 78.5337 46.2582 78.2134 46.5385C77.8931 46.8189 77.5728 47.0432 77.1992 47.3235L75.8111 48.3888C78.9074 50.5756 81.8968 52.3698 84.8329 53.8837L88.6231 48.8935C89.4238 47.4357 90.2246 46.7067 90.9719 46.7067C91.8794 46.7067 92.8937 47.7721 93.908 49.9028L85.8472 54.4444C89.5306 56.3508 99.1396 60.2197 99.1396 60.2197C99.1396 60.2197 95.1892 60.7243 93.7479 62.1261C92.6268 63.2475 92.6802 63.7521 90.5449 63.7521C90.0111 63.7521 89.2103 63.3596 87.8223 62.4064C85.2066 60.2197 76.9856 51.5288 75.0104 48.9496C72.5014 50.7438 70.633 51.8091 68.6044 52.7063C68.6578 52.8745 68.6579 53.1548 68.6579 53.5473V57.6405L76.5585 55.678L67.2699 62.6868C66.3624 63.7521 65.6684 64.2568 64.8143 64.2568C63.5865 64.2568 62.4654 62.6307 61.5045 59.3226L64.1737 58.6497V54.1641C61.9316 54.7809 59.476 55.1734 56.8602 55.3976C59.5293 54.052 61.718 52.8184 63.4797 51.7531C65.2413 50.6877 66.9496 49.4542 68.6044 48.0524L70.4728 46.5385L71.5939 45.6975H58.8888C58.088 46.0339 57.6075 46.2021 57.394 46.2021C57.1271 46.2021 56.8602 46.0339 56.6467 45.6975C56.4332 45.3611 56.1663 44.7443 55.846 43.7911H67.43V38.128H62.0384C61.2376 38.4644 60.7572 38.6326 60.5436 38.6326C60.2767 38.6326 60.0098 38.4644 59.7962 38.128C59.5827 37.7915 59.3158 37.1748 58.9955 36.2216H67.4834V29.9417H61.0241C60.2233 30.2781 59.7429 30.4463 59.5293 30.4463C59.2624 30.4463 58.9956 30.2781 58.782 29.9417C58.5685 29.6053 58.3016 28.9885 57.9813 28.0353H67.5368H85.5269V28.2596ZM59.3692 9.47601C59.1023 9.47601 58.8354 9.3078 58.6218 8.97138C58.4083 8.63496 58.1414 8.01819 57.8211 7.06499H91.4524C92.5734 5.88751 93.4276 5.3268 94.1215 5.3268C94.602 5.3268 95.0824 5.60716 95.5095 6.16786C95.9366 6.72856 96.3103 7.68176 96.684 8.9153H60.9173C60.0632 9.3078 59.5294 9.47601 59.3692 9.47601ZM74.53 24.0543C74.53 24.0543 74.53 24.8954 73.7293 25.2878C72.9285 25.6803 68.3375 27.811 68.3375 27.811H67.8571L70.0458 24.1664V23.6618H64.8676C64.7075 24.1665 64.3338 24.5029 63.7466 24.615C63.2128 24.7272 62.0917 24.7832 60.4903 24.7832V12.5599C61.291 12.5599 62.0384 12.5599 62.6256 12.5038C62.8925 12.4477 63.2662 12.4477 63.6399 12.4477C64.0669 12.4477 64.3338 12.5038 64.5473 12.616C64.7075 12.7281 64.8676 12.9524 64.8676 13.2888H69.8856C70.4195 12.672 70.8466 12.2235 71.1669 11.9992C71.4872 11.7749 71.7541 11.6627 72.021 11.6627C72.2879 11.6627 72.6082 11.831 73.0353 12.2235C73.4089 12.5599 73.8894 13.0645 74.4232 13.6813V24.0543H74.53ZM70.0458 21.7554V15.1952H65.2414L65.0278 15.2513V21.7554H70.0458ZM91.9862 24.0543C91.9862 24.0543 91.9862 24.8954 91.1855 25.2878C90.3847 25.6803 85.7938 27.811 85.7938 27.811H85.3134L87.502 24.1664V23.6618H82.3239C82.1638 24.1665 81.7901 24.5029 81.2029 24.615C80.6691 24.7272 79.548 24.7832 77.9465 24.7832V12.5599C78.7472 12.5599 79.4946 12.5599 80.0818 12.5038C80.3487 12.4477 80.7224 12.4477 81.0961 12.4477C81.5231 12.4477 81.7901 12.5038 82.0036 12.616C82.1638 12.7281 82.3239 12.9524 82.3239 13.2888H87.3419C87.8758 12.672 88.3028 12.2235 88.6231 11.9992C88.9434 11.7749 89.2103 11.6627 89.4772 11.6627C89.7442 11.6627 90.0644 11.831 90.4915 12.2235C90.8652 12.5599 91.3457 13.0645 91.8795 13.6813V24.0543H91.9862ZM87.5554 21.7554V15.1952H82.7509L82.5375 15.2513V21.7554H87.5554ZM72.3947 1.90651C71.4872 1.23366 70.0992 0.616892 68.2842 0.000118256C71.2202 0.000118256 73.3022 0.112262 74.5834 0.336544C75.8646 0.560825 76.9856 1.00938 77.9999 1.68223C79.2277 2.52329 79.8683 3.58862 79.8683 4.71003C79.8683 5.38287 79.6547 5.94357 79.2277 6.39214C78.8006 6.8407 78.3202 7.06499 77.733 7.06499C76.8255 7.06499 75.9713 6.50428 75.1706 5.3268L74.6367 4.31754C74.0495 3.36435 73.3022 2.57935 72.3947 1.90651ZM71.8074 36.4459H81.0427V30.166H71.8074V36.4459ZM71.8074 43.9593H81.0427V38.2962H71.8074V43.9593Z" fill="#1B1B1B"/>
<path d="M128.5 58.5935C128.34 58.93 127.966 59.2103 127.432 59.3224C126.898 59.4346 125.831 59.4907 124.283 59.4907V56.2947H113.98V61.2849C113.98 62.3502 113.873 63.0792 113.713 63.4156C113.553 63.752 113.179 64.0324 112.645 64.1445C112.111 64.2567 111.044 64.3127 109.496 64.3127V28.8202H106.88C106.079 29.1566 105.599 29.3248 105.385 29.3248C105.118 29.3248 104.851 29.1566 104.638 28.8202C104.424 28.4838 104.157 27.867 103.837 26.9138H109.549V18.8396C110.35 18.8396 111.044 18.8396 111.524 18.7836C112.005 18.7275 112.432 18.7275 112.752 18.7275C113.232 18.7275 113.606 18.8396 113.766 19.0639C113.926 19.2882 114.033 19.7368 114.033 20.4096V26.9698H124.336V18.8957C125.137 18.8957 125.831 18.8957 126.311 18.8396C126.792 18.7836 127.219 18.7836 127.539 18.7836C128.019 18.7836 128.393 18.8957 128.553 19.12C128.713 19.3443 128.82 19.7928 128.82 20.4657V27.0259H128.98C130.101 25.8484 131.062 25.2877 131.916 25.2877C133.144 25.2877 134.159 26.4652 134.852 28.8762H128.82V56.4629C128.767 57.5282 128.66 58.2571 128.5 58.5935ZM115.368 14.9708C115.368 15.7558 115.101 16.2043 114.46 16.3165C113.82 16.4286 112.592 16.4847 110.83 16.4847V2.29889C111.311 2.35496 111.898 2.35496 112.645 2.35496C113.126 2.35496 113.606 2.35496 113.98 2.29889C114.353 2.24282 114.674 2.24281 114.834 2.24281C115.101 2.24281 115.261 2.35496 115.314 2.52317C115.368 2.69138 115.368 3.19601 115.368 3.86885V11.3823H131.383V0.112148C132.183 0.112148 132.877 0.112144 133.358 0.0560738C133.838 3.42143e-06 134.265 0 134.586 0C135.066 0 135.44 0.112144 135.6 0.336426C135.76 0.560707 135.867 1.00927 135.867 1.68211V11.4384H152.042V2.18674C152.522 2.24281 153.109 2.24281 153.857 2.24281C154.337 2.24281 154.818 2.24281 155.191 2.18674C155.565 2.13067 155.885 2.13067 156.046 2.13067C156.312 2.13067 156.473 2.24281 156.526 2.41102C156.579 2.57923 156.579 3.08388 156.579 3.75672V13.4569C156.579 13.6812 156.579 14.1858 156.633 14.9708C156.633 15.7558 156.366 16.2043 155.725 16.3165C155.085 16.4286 153.857 16.4847 152.095 16.4847V13.2887H115.421V13.4569C115.314 13.6812 115.314 14.1858 115.368 14.9708ZM113.926 28.8202V41.0435H124.229V28.8202H113.926ZM124.283 54.4443V42.9499H113.98V54.4443H124.283ZM153.75 53.379C156.579 56.3507 159.996 58.8178 164 60.6681C163.199 60.6681 162.612 60.7242 162.238 60.9485C161.864 61.1167 161.491 61.5092 161.17 62.0699C160.37 63.4717 159.462 64.1445 158.555 64.1445C158.127 64.1445 157.7 63.9763 157.167 63.6399C155.031 62.0138 152.843 59.4907 150.707 56.1264C148.572 52.7622 146.864 48.613 145.689 43.7909C144.568 47.3234 142.967 50.6316 140.885 53.7715C138.749 56.9114 136.454 59.4346 133.945 61.4531C131.436 63.4156 128.98 64.4809 126.632 64.537C131.062 62.2942 134.692 58.7057 137.415 53.7154C140.137 48.7251 141.899 42.6135 142.7 35.3243L143.127 31.7358C144.355 31.904 145.316 31.9601 145.956 31.9601C146.65 31.9601 147.077 32.0162 147.291 32.1283C147.504 32.2405 147.611 32.5208 147.611 32.9694L147.451 34.3151L147.131 37.0064C146.97 38.6325 146.704 40.2585 146.33 41.9406C148.358 46.5384 150.867 50.3512 153.75 53.379ZM153.75 26.297C154.444 24.671 155.939 24.2785 156.74 24.2785C158.821 24.2785 159.409 26.3531 160.85 27.4745L150.921 39.9782L153.483 27.9791H141.152C140.031 30.278 138.696 32.2965 137.148 34.0347C135.546 35.7729 133.304 37.6232 130.422 39.6978C132.557 35.4925 134.105 32.0723 135.066 29.3809C136.027 26.6895 136.881 23.101 137.522 18.6714C137.842 17.3257 138.696 16.6529 140.084 16.6529C140.831 16.6529 141.685 16.8211 142.7 17.1015C143.767 17.3257 144.355 17.4379 144.568 17.4379C144.835 17.4379 145.049 17.4379 145.262 17.3818L144.248 20.2975C143.127 23.4935 142.326 25.512 141.952 26.3531H153.75V26.297Z" fill="#1B1B1B"/>
<path d="M5.44531 9.85484C5.44531 9.31011 5.54431 8.76537 5.69282 8.31968C5.84132 7.87399 6.08884 7.47783 6.38584 7.1807C6.68285 6.88357 7.07882 6.63597 7.52433 6.43788C7.96984 6.28932 8.46484 6.19028 9.00935 6.19028C9.60337 6.19028 10.0984 6.28932 10.5934 6.48741C11.0884 6.68549 11.4844 6.9331 11.8309 7.27975C12.1774 7.6264 12.4249 8.02256 12.6229 8.46825C12.8209 8.91394 12.9199 9.45868 12.9199 10.0034C12.9199 10.3996 12.8705 10.7462 12.7715 11.0929C12.6725 11.4395 12.4745 11.8357 12.2765 12.2319L12.8705 12.4299V12.7766H10.4944V12.2814C11.0884 12.1328 11.5339 11.8852 11.8804 11.5386C12.2269 11.1919 12.3754 10.6967 12.3754 10.1024C12.3754 9.35963 12.0785 8.8149 11.5339 8.41873C10.9894 8.02256 10.1974 7.82447 9.20737 7.82447C8.21735 7.82447 7.47485 8.02256 6.93034 8.41873C6.38583 8.8149 6.13834 9.35963 6.13834 10.1024C6.13834 10.6472 6.2868 11.0433 6.53431 11.3405C6.83131 11.6376 7.17784 11.7862 7.67285 11.7862C7.96986 11.7862 8.16789 11.6871 8.31639 11.5386C8.46489 11.39 8.51439 11.1424 8.56389 10.7957H8.95987V13.8661H8.56389C8.56389 13.5689 8.51438 13.3213 8.36588 13.2223C8.21738 13.1232 7.96987 13.0242 7.62337 13.0242H6.38584C6.38584 12.8756 6.38584 12.7766 6.38584 12.6776C6.38584 12.5785 6.33635 12.4795 6.33635 12.3804C6.28685 12.2814 6.28683 12.1823 6.18783 12.0833C6.13833 11.9843 6.03932 11.8357 5.94032 11.6376C5.59382 11.1919 5.44531 10.5977 5.44531 9.85484Z" fill="black"/>
<path d="M9.55423 16.7384C9.55423 17.1346 9.55422 17.4812 9.60372 17.7288C9.65322 17.9764 9.70268 18.1745 9.75218 18.3231C9.85119 18.4716 9.95022 18.5707 10.0987 18.6202C10.2472 18.6697 10.4452 18.7193 10.6927 18.7688V19.1154H7.92067V18.7688C8.16818 18.7193 8.36616 18.6697 8.51466 18.6202C8.66316 18.5707 8.7622 18.4716 8.8612 18.3231C8.96021 18.1745 9.00967 17.9764 9.00967 17.7783C9.00967 17.5803 9.05922 17.2336 9.05922 16.8374H7.12867C6.93067 16.8374 6.78217 16.887 6.63366 16.9365C6.48516 16.986 6.38612 17.0851 6.28712 17.1841C6.18812 17.3327 6.13867 17.4812 6.08916 17.6793C6.03966 17.8774 6.03962 18.125 6.03962 18.4221C6.03962 18.7688 6.08915 19.0659 6.13865 19.3135C6.18815 19.5611 6.28716 19.7592 6.38616 19.9078C6.53466 20.0563 6.68316 20.2049 6.88117 20.3039C7.07917 20.403 7.37616 20.502 7.67317 20.5515V20.9477L5.49512 20.7991V14.3614H5.89115C5.89115 14.5595 5.94064 14.7576 5.94064 14.8566C5.99014 15.0052 6.03966 15.1042 6.08916 15.1537C6.18817 15.2033 6.28716 15.2528 6.38616 15.3023C6.53466 15.3518 6.68315 15.3518 6.93066 15.3518H11.2868C11.4848 15.3518 11.6828 15.3518 11.8313 15.3023C11.9798 15.2528 12.0788 15.2528 12.1283 15.1537C12.2273 15.1042 12.2768 15.0052 12.2768 14.9061C12.3263 14.8071 12.3263 14.6585 12.3263 14.4604H12.7222V20.403L10.8907 20.4525V20.0563C11.1382 20.0068 11.3858 19.9573 11.5343 19.8582C11.6828 19.7592 11.8312 19.6602 11.9302 19.5116C12.0292 19.363 12.1283 19.1649 12.1283 18.9669C12.1778 18.7192 12.1777 18.4717 12.1777 18.125V17.0355C12.1777 16.887 12.1778 16.7879 12.1283 16.7384C12.0788 16.6889 11.9798 16.6889 11.8313 16.6889H9.55423V16.7384Z" fill="black"/>
<path d="M7.27651 26.6921L12.7712 28.8711V31.6443H12.3751C12.3751 31.4462 12.3751 31.2481 12.3256 31.149C12.2761 31.0005 12.2266 30.9014 12.1276 30.8519C12.0286 30.8024 11.8801 30.7529 11.6821 30.7033C11.4841 30.7033 11.2861 30.6538 10.9891 30.6538H7.32606C7.02905 30.6538 6.78155 30.6538 6.58354 30.7033C6.38554 30.7529 6.23702 30.8024 6.13802 30.8519C6.03902 30.9509 5.98951 31.05 5.94001 31.1986C5.8905 31.3471 5.89052 31.5452 5.89052 31.7433H5.49449V28.1778H5.89052C5.89052 28.4254 5.94001 28.5739 5.94001 28.7225C5.98951 28.8711 6.03902 28.9701 6.13802 29.0692C6.23702 29.1682 6.38549 29.2177 6.53399 29.2177C6.6825 29.2672 6.93001 29.2672 7.22702 29.2672H11.6326V29.2177L5.39551 26.6921V25.9988L11.6326 23.3742V23.3247H7.27651C6.9795 23.3247 6.732 23.3247 6.53399 23.3742C6.33599 23.4237 6.18753 23.4733 6.08853 23.5228C5.98953 23.6218 5.94002 23.7209 5.89052 23.8694C5.84102 24.018 5.84103 24.2161 5.84103 24.4141H5.445V21.4924H5.84103C5.84103 21.74 5.89052 21.9381 5.89052 22.0371C5.94002 22.1857 5.98953 22.2847 6.08853 22.3838C6.18753 22.4828 6.336 22.5323 6.4845 22.5323C6.63301 22.5819 6.88052 22.5819 7.17753 22.5819H10.9891C11.2366 22.5819 11.4841 22.5819 11.6326 22.5323C11.8306 22.4828 11.9296 22.4828 12.0286 22.3838C12.1276 22.3343 12.2266 22.2352 12.2266 22.0866C12.2266 21.9381 12.2761 21.7895 12.2761 21.5914H12.6721V24.4637L7.27651 26.6921Z" fill="black"/>
<path d="M7.27651 37.4878L12.7712 39.6668V42.44H12.3751C12.3751 42.2419 12.3751 42.0438 12.3256 41.9448C12.2761 41.7962 12.2266 41.6971 12.1276 41.6476C12.0286 41.5981 11.8801 41.5486 11.6821 41.4991C11.4841 41.4991 11.2861 41.4495 10.9891 41.4495H7.32606C7.02905 41.4495 6.78155 41.4495 6.58354 41.4991C6.38554 41.5486 6.23702 41.5981 6.13802 41.6476C6.03902 41.7467 5.98951 41.8457 5.94001 41.9943C5.8905 42.1428 5.89052 42.3409 5.89052 42.539H5.49449V38.9735H5.89052C5.89052 39.2211 5.94001 39.3696 5.94001 39.5182C5.98951 39.6668 6.03902 39.7658 6.13802 39.8649C6.23702 39.9639 6.38549 40.0134 6.53399 40.0134C6.6825 40.0629 6.93001 40.063 7.22702 40.063H11.6326V40.0134L5.39551 37.4878V36.7945L11.6326 34.1699V34.1204H7.27651C6.9795 34.1204 6.732 34.1204 6.53399 34.1699C6.33599 34.2194 6.18753 34.269 6.08853 34.3185C5.98953 34.4175 5.94002 34.5166 5.89052 34.6651C5.84102 34.8137 5.84103 35.0118 5.84103 35.2099H5.445V32.2881H5.84103C5.84103 32.5357 5.89052 32.7338 5.89052 32.8328C5.94002 32.9814 5.98953 33.0805 6.08853 33.1795C6.18753 33.2785 6.336 33.3281 6.4845 33.3281C6.63301 33.3776 6.88052 33.3776 7.17753 33.3776H10.9891C11.2366 33.3776 11.4841 33.3776 11.6326 33.3281C11.8306 33.2785 11.9296 33.2785 12.0286 33.1795C12.1276 33.13 12.2266 33.0309 12.2266 32.8824C12.2761 32.7338 12.2761 32.5853 12.2761 32.3872H12.6721V35.2594L7.27651 37.4878Z" fill="black"/>
<path d="M9.55423 45.5598C9.55423 45.956 9.55422 46.3026 9.60372 46.5502C9.65322 46.7978 9.70268 46.9959 9.75218 47.1445C9.85119 47.2931 9.95022 47.3921 10.0987 47.4416C10.2472 47.4911 10.4452 47.5407 10.6927 47.5902V47.9368H7.92067V47.5902C8.16818 47.5407 8.36616 47.4911 8.51466 47.4416C8.66316 47.3921 8.7622 47.2931 8.8612 47.1445C8.96021 46.9959 9.00967 46.7978 9.00967 46.5997C9.00967 46.3521 9.05922 46.055 9.05922 45.6589H7.12867C6.93067 45.6589 6.78217 45.7084 6.63366 45.7579C6.48516 45.8074 6.38612 45.9065 6.28712 46.0055C6.18812 46.1541 6.13867 46.3026 6.08916 46.5007C6.03966 46.6988 6.03962 46.9464 6.03962 47.2435C6.03962 47.5902 6.08915 47.8873 6.13865 48.1349C6.18815 48.3825 6.28716 48.5806 6.38616 48.7292C6.53466 48.8777 6.68316 49.0263 6.88117 49.1253C7.07917 49.2244 7.37616 49.3234 7.67317 49.373V49.7691L5.49512 49.6206V43.2323H5.89115C5.89115 43.4304 5.94064 43.6285 5.94064 43.7275C5.99014 43.8761 6.03966 43.9752 6.08916 44.0247C6.18817 44.0742 6.28716 44.1237 6.38616 44.1732C6.53466 44.2228 6.68315 44.2227 6.93066 44.2227H11.2868C11.4848 44.2227 11.6828 44.2228 11.8313 44.1732C11.9798 44.1237 12.0788 44.1237 12.1283 44.0247C12.2273 43.9752 12.2768 43.8761 12.2768 43.7771C12.3263 43.678 12.3263 43.5294 12.3263 43.3314H12.7222V49.2739L10.8907 49.3234V48.9273C11.1382 48.8777 11.3858 48.8282 11.5343 48.7292C11.6828 48.6301 11.8312 48.5311 11.9302 48.3825C12.0292 48.234 12.1283 48.0359 12.1283 47.8378C12.1778 47.5902 12.1777 47.3426 12.1777 46.9959V45.9065C12.1777 45.7579 12.1778 45.6588 12.1283 45.6093C12.0788 45.5598 11.9798 45.5598 11.8313 45.5598H9.55423Z" fill="black"/>
<path d="M5.54461 50.3633H5.94064C5.94064 50.5614 5.94063 50.7595 5.99013 50.8585C6.03963 51.0071 6.08915 51.1061 6.13865 51.1557C6.23766 51.2052 6.33665 51.2547 6.43565 51.3042C6.58415 51.3537 6.73264 51.3538 6.98015 51.3538H11.3363C11.5343 51.3538 11.7322 51.3537 11.8807 51.3042C12.0293 51.3042 12.1282 51.2547 12.1777 51.2052C12.2767 51.1557 12.3263 51.0566 12.3263 50.9576C12.3758 50.8586 12.3758 50.71 12.3758 50.5119H12.7718V54.0774C12.7718 54.6717 12.6727 55.2164 12.4747 55.7611C12.2767 56.2563 12.0292 56.702 11.6827 57.0982C11.3362 57.4449 10.9402 57.742 10.4947 57.9896C10.0492 58.1877 9.55418 58.2867 9.00967 58.2867C8.51466 58.2867 8.0197 58.1877 7.57419 57.9896C7.12868 57.7915 6.78214 57.5439 6.48514 57.1973C6.18813 56.8506 5.94063 56.4049 5.74262 55.9592C5.59412 55.464 5.49512 54.9193 5.49512 54.3745V50.3633H5.54461ZM12.2272 52.8889C12.2272 52.7899 12.1778 52.7403 12.0788 52.7403H7.17816C6.83165 52.7403 6.53466 52.8394 6.38616 53.087C6.18815 53.3346 6.13865 53.6812 6.13865 54.1269C6.13865 54.9688 6.38616 55.563 6.88117 56.0087C7.37618 56.4544 8.1187 56.6525 9.05922 56.6525C9.55423 56.6525 9.99971 56.603 10.3957 56.4544C10.7917 56.3554 11.1382 56.1573 11.3857 55.9592C11.6332 55.7611 11.8808 55.464 12.0293 55.1174C12.1778 54.7707 12.2272 54.4241 12.2272 54.0279V52.8889Z" fill="black"/>
<defs>
<linearGradient id="paint0_linear_56799_3894" x1="32" y1="-5.46277" x2="-4" y2="68.5001" gradientUnits="userSpaceOnUse">
<stop stop-color="#88ECFA"/>
<stop offset="0.767695" stop-color="#D4ABF9"/>
<stop offset="1" stop-color="#F4B9D1"/>
</linearGradient>
</defs>
</svg>
