<svg width="20" height="19" viewBox="0 0 20 19" fill="none" xmlns="http://www.w3.org/2000/svg">
<path fill-rule="evenodd" clip-rule="evenodd" d="M3.61865 6.6186C3.22123 7.49736 3 8.47284 3 9.5C3 13.366 6.13401 16.5 10 16.5C11.2535 16.5 12.43 16.1705 13.4476 15.5935L12.125 14.0273C11.4801 14.3305 10.7598 14.5 10 14.5C7.23858 14.5 5 12.2614 5 9.5C5 9.02385 5.06656 8.56325 5.19087 8.12699L5.00005 8L3.61865 6.6186ZM14.968 10.0691C14.9891 9.88233 15 9.69244 15 9.5C15 6.73858 12.7614 4.5 10 4.5C9.61825 4.5 9.24649 4.54278 8.88925 4.62382L7.48784 2.96429C8.2676 2.66438 9.1146 2.5 10 2.5C13.866 2.5 17 5.63401 17 9.5C17 10.0184 16.9437 10.5236 16.8367 11.0099L14.968 10.0691Z" fill="#0FBCE2"/>
<path d="M16 13.5L19.4641 9.75H12.5359L16 13.5Z" fill="#0FBCE2"/>
<path d="M4 4.5L7.4641 8.25H0.535898L4 4.5Z" fill="#0FBCE2"/>
</svg>
