<svg width="68" height="68" viewBox="0 0 68 68" fill="none" xmlns="http://www.w3.org/2000/svg">
<rect width="68" height="68" rx="8" fill="#EFF9FE"/>
<path d="M40.783 16.4001H49.5792C51.2361 16.4001 52.5792 17.7433 52.5792 19.4001V21.1186H40.783V16.4001Z" fill="#465660"/>
<path d="M22.8527 20.4001C22.8527 18.191 24.6435 16.4001 26.8527 16.4001H49.6301C49.6301 16.4001 48.1449 16.4511 47.1529 17.3438C45.9733 18.4055 46.2092 20.8532 46.2092 20.8532V25.3063V34.2125V48.0248C46.2092 50.2339 44.4184 52.0248 42.2092 52.0248H22.8527V20.4001Z" fill="#D9D9D9"/>
<path d="M16.4829 47.3062H39.9574C39.9574 47.3062 39.7432 49.1313 40.3113 50.1373C40.9334 51.2387 42.9065 52.0247 42.9065 52.0247H20.4829C18.2738 52.0247 16.4829 50.2338 16.4829 48.0247V47.3062Z" fill="#465660"/>
<path d="M29 20L30.0804 22.5547L33 23.5L30.0804 24.4453L29 27L27.9196 24.4453L25 23.5L27.9196 22.5547L29 20Z" fill="#FE5A57"/>
<rect x="32.9973" y="25.2417" width="10.6166" height="1.41555" rx="0.707775" fill="white"/>
<rect x="26.3914" y="29.7246" width="17.2225" height="1.41555" rx="0.707775" fill="white"/>
<rect x="26.3914" y="34.4429" width="17.2225" height="1.41555" rx="0.707775" fill="white"/>
<rect x="26.3914" y="39.1616" width="10.8525" height="1.41555" rx="0.707775" fill="white"/>
<path d="M12 30.5952C12 29.1619 13.1619 28 14.5952 28H22.8525L25.8016 30.5952L22.8525 33.1903H14.5952C13.1619 33.1903 12 32.0284 12 30.5952Z" fill="#00A7EA"/>
<path d="M55.8015 39.5952C55.8015 38.1619 54.6396 37 53.2063 37H44.949L41.9999 39.5952L44.949 42.1903H53.2063C54.6396 42.1903 55.8015 41.0284 55.8015 39.5952Z" fill="#F9C623"/>
</svg>
