<svg xmlns="http://www.w3.org/2000/svg" xmlns:xlink="http://www.w3.org/1999/xlink" fill="none" version="1.1" width="16.06640625" height="16.066680908203125" viewBox="0 0 16.06640625 16.066680908203125"><g transform="matrix(-1,0,0,1,32.06640625,0)"><g style="opacity:0;"><g><path d="M16.0333333,0.0333333C16.0333333,0.0333333,16.0333333,0,16.0333333,0C16.0333333,0,16,0,16,0C16,0,16,0.0333333,16,0.0333333C16,0.0333333,16.0333333,0.0333333,16.0333333,0.0333333C16.0333333,0.0333333,16.0333333,0.0333333,16.0333333,0.0333333ZM32.0333,0.0333333C32.0333,0.0333333,32.0667,0.0333333,32.0667,0.0333333C32.0667,0.0333333,32.0667,0,32.0667,0C32.0667,0,32.0333,0,32.0333,0C32.0333,0,32.0333,0.0333333,32.0333,0.0333333C32.0333,0.0333333,32.0333,0.0333333,32.0333,0.0333333ZM32.0333,16.0333C32.0333,16.0333,32.0333,16.0667,32.0333,16.0667C32.0333,16.0667,32.0667,16.0667,32.0667,16.0667C32.0667,16.0667,32.0667,16.0333,32.0667,16.0333C32.0667,16.0333,32.0333,16.0333,32.0333,16.0333C32.0333,16.0333,32.0333,16.0333,32.0333,16.0333ZM16.0333333,16.0333C16.0333333,16.0333,16,16.0333,16,16.0333C16,16.0333,16,16.0667,16,16.0667C16,16.0667,16.0333333,16.0667,16.0333333,16.0667C16.0333333,16.0667,16.0333333,16.0333,16.0333333,16.0333C16.0333333,16.0333,16.0333333,16.0333,16.0333333,16.0333ZM16.0333333,0.0666667C16.0333333,0.0666667,32.0333,0.0666667,32.0333,0.0666667C32.0333,0.0666667,32.0333,0,32.0333,0C32.0333,0,16.0333333,0,16.0333333,0C16.0333333,0,16.0333333,0.0666667,16.0333333,0.0666667C16.0333333,0.0666667,16.0333333,0.0666667,16.0333333,0.0666667ZM32,0.0333333C32,0.0333333,32,16.0333,32,16.0333C32,16.0333,32.0667,16.0333,32.0667,16.0333C32.0667,16.0333,32.0667,0.0333333,32.0667,0.0333333C32.0667,0.0333333,32,0.0333333,32,0.0333333C32,0.0333333,32,0.0333333,32,0.0333333ZM32.0333,16C32.0333,16,16.0333333,16,16.0333333,16C16.0333333,16,16.0333333,16.0667,16.0333333,16.0667C16.0333333,16.0667,32.0333,16.0667,32.0333,16.0667C32.0333,16.0667,32.0333,16,32.0333,16C32.0333,16,32.0333,16,32.0333,16ZM16.0666667,16.0333C16.0666667,16.0333,16.0666667,0.0333333,16.0666667,0.0333333C16.0666667,0.0333333,16,0.0333333,16,0.0333333C16,0.0333333,16,16.0333,16,16.0333C16,16.0333,16.0666667,16.0333,16.0666667,16.0333C16.0666667,16.0333,16.0666667,16.0333,16.0666667,16.0333Z" fill="#AD96BC" fill-opacity="1"/></g><g><path d="M17.367317675,1.36664628828125C17.367317675,1.36664628828125,17.367317675,1.33331298828125,17.367317675,1.33331298828125C17.367317675,1.33331298828125,17.333984375,1.33331298828125,17.333984375,1.33331298828125C17.333984375,1.33331298828125,17.333984375,1.36664628828125,17.333984375,1.36664628828125C17.333984375,1.36664628828125,17.367317675,1.36664628828125,17.367317675,1.36664628828125C17.367317675,1.36664628828125,17.367317675,1.36664628828125,17.367317675,1.36664628828125ZM30.700684375,1.36664628828125C30.700684375,1.36664628828125,30.733984375,1.36664628828125,30.733984375,1.36664628828125C30.733984375,1.36664628828125,30.733984375,1.33331298828125,30.733984375,1.33331298828125C30.733984375,1.33331298828125,30.700684375,1.33331298828125,30.700684375,1.33331298828125C30.700684375,1.33331298828125,30.700684375,1.36664628828125,30.700684375,1.36664628828125C30.700684375,1.36664628828125,30.700684375,1.36664628828125,30.700684375,1.36664628828125ZM30.700684375,14.70001298828125C30.700684375,14.70001298828125,30.700684375,14.73331298828125,30.700684375,14.73331298828125C30.700684375,14.73331298828125,30.733984375,14.73331298828125,30.733984375,14.73331298828125C30.733984375,14.73331298828125,30.733984375,14.70001298828125,30.733984375,14.70001298828125C30.733984375,14.70001298828125,30.700684375,14.70001298828125,30.700684375,14.70001298828125C30.700684375,14.70001298828125,30.700684375,14.70001298828125,30.700684375,14.70001298828125ZM17.367317675,14.70001298828125C17.367317675,14.70001298828125,17.333984375,14.70001298828125,17.333984375,14.70001298828125C17.333984375,14.70001298828125,17.333984375,14.73331298828125,17.333984375,14.73331298828125C17.333984375,14.73331298828125,17.367317675,14.73331298828125,17.367317675,14.73331298828125C17.367317675,14.73331298828125,17.367317675,14.70001298828125,17.367317675,14.70001298828125C17.367317675,14.70001298828125,17.367317675,14.70001298828125,17.367317675,14.70001298828125ZM17.367317675,1.39997968828125C17.367317675,1.39997968828125,30.700684375,1.39997968828125,30.700684375,1.39997968828125C30.700684375,1.39997968828125,30.700684375,1.33331298828125,30.700684375,1.33331298828125C30.700684375,1.33331298828125,17.367317675,1.33331298828125,17.367317675,1.33331298828125C17.367317675,1.33331298828125,17.367317675,1.39997968828125,17.367317675,1.39997968828125C17.367317675,1.39997968828125,17.367317675,1.39997968828125,17.367317675,1.39997968828125ZM30.667284375,1.36664628828125C30.667284375,1.36664628828125,30.667284375,14.70001298828125,30.667284375,14.70001298828125C30.667284375,14.70001298828125,30.733984375,14.70001298828125,30.733984375,14.70001298828125C30.733984375,14.70001298828125,30.733984375,1.36664628828125,30.733984375,1.36664628828125C30.733984375,1.36664628828125,30.667284375,1.36664628828125,30.667284375,1.36664628828125C30.667284375,1.36664628828125,30.667284375,1.36664628828125,30.667284375,1.36664628828125ZM30.700684375,14.66661298828125C30.700684375,14.66661298828125,17.367317675,14.66661298828125,17.367317675,14.66661298828125C17.367317675,14.66661298828125,17.367317675,14.73331298828125,17.367317675,14.73331298828125C17.367317675,14.73331298828125,30.700684375,14.73331298828125,30.700684375,14.73331298828125C30.700684375,14.73331298828125,30.700684375,14.66661298828125,30.700684375,14.66661298828125C30.700684375,14.66661298828125,30.700684375,14.66661298828125,30.700684375,14.66661298828125ZM17.400651075,14.70001298828125C17.400651075,14.70001298828125,17.400651075,1.36664628828125,17.400651075,1.36664628828125C17.400651075,1.36664628828125,17.333984375,1.36664628828125,17.333984375,1.36664628828125C17.333984375,1.36664628828125,17.333984375,14.70001298828125,17.333984375,14.70001298828125C17.333984375,14.70001298828125,17.400651075,14.70001298828125,17.400651075,14.70001298828125C17.400651075,14.70001298828125,17.400651075,14.70001298828125,17.400651075,14.70001298828125Z" fill="#AD96BC" fill-opacity="1"/></g><g><path d="M18.0333333,2.0333333C18.0333333,2.0333333,18.0333333,2,18.0333333,2C18.0333333,2,18,2,18,2C18,2,18,2.0333333,18,2.0333333C18,2.0333333,18.0333333,2.0333333,18.0333333,2.0333333C18.0333333,2.0333333,18.0333333,2.0333333,18.0333333,2.0333333ZM30.0333,2.0333333C30.0333,2.0333333,30.0667,2.0333333,30.0667,2.0333333C30.0667,2.0333333,30.0667,2,30.0667,2C30.0667,2,30.0333,2,30.0333,2C30.0333,2,30.0333,2.0333333,30.0333,2.0333333C30.0333,2.0333333,30.0333,2.0333333,30.0333,2.0333333ZM30.0333,14.0333C30.0333,14.0333,30.0333,14.0667,30.0333,14.0667C30.0333,14.0667,30.0667,14.0667,30.0667,14.0667C30.0667,14.0667,30.0667,14.0333,30.0667,14.0333C30.0667,14.0333,30.0333,14.0333,30.0333,14.0333C30.0333,14.0333,30.0333,14.0333,30.0333,14.0333ZM18.0333333,14.0333C18.0333333,14.0333,18,14.0333,18,14.0333C18,14.0333,18,14.0667,18,14.0667C18,14.0667,18.0333333,14.0667,18.0333333,14.0667C18.0333333,14.0667,18.0333333,14.0333,18.0333333,14.0333C18.0333333,14.0333,18.0333333,14.0333,18.0333333,14.0333ZM18.0333333,2.0666667C18.0333333,2.0666667,30.0333,2.0666667,30.0333,2.0666667C30.0333,2.0666667,30.0333,2,30.0333,2C30.0333,2,18.0333333,2,18.0333333,2C18.0333333,2,18.0333333,2.0666667,18.0333333,2.0666667C18.0333333,2.0666667,18.0333333,2.0666667,18.0333333,2.0666667ZM30,2.0333333C30,2.0333333,30,14.0333,30,14.0333C30,14.0333,30.0667,14.0333,30.0667,14.0333C30.0667,14.0333,30.0667,2.0333333,30.0667,2.0333333C30.0667,2.0333333,30,2.0333333,30,2.0333333C30,2.0333333,30,2.0333333,30,2.0333333ZM30.0333,14C30.0333,14,18.0333333,14,18.0333333,14C18.0333333,14,18.0333333,14.0667,18.0333333,14.0667C18.0333333,14.0667,30.0333,14.0667,30.0333,14.0667C30.0333,14.0667,30.0333,14,30.0333,14C30.0333,14,30.0333,14,30.0333,14ZM18.0666667,14.0333C18.0666667,14.0333,18.0666667,2.0333333,18.0666667,2.0333333C18.0666667,2.0333333,18,2.0333333,18,2.0333333C18,2.0333333,18,14.0333,18,14.0333C18,14.0333,18.0666667,14.0333,18.0666667,14.0333C18.0666667,14.0333,18.0666667,14.0333,18.0666667,14.0333Z" fill="#AD96BC" fill-opacity="1"/></g><g><path d="M17.367317675,2.70002031171875C17.367317675,2.70002031171875,17.367317675,2.66668701171875,17.367317675,2.66668701171875C17.367317675,2.66668701171875,17.333984375,2.66668701171875,17.333984375,2.66668701171875C17.333984375,2.66668701171875,17.333984375,2.70002031171875,17.333984375,2.70002031171875C17.333984375,2.70002031171875,17.367317675,2.70002031171875,17.367317675,2.70002031171875C17.367317675,2.70002031171875,17.367317675,2.70002031171875,17.367317675,2.70002031171875ZM30.700684375,2.70002031171875C30.700684375,2.70002031171875,30.733984375,2.70002031171875,30.733984375,2.70002031171875C30.733984375,2.70002031171875,30.733984375,2.66668701171875,30.733984375,2.66668701171875C30.733984375,2.66668701171875,30.700684375,2.66668701171875,30.700684375,2.66668701171875C30.700684375,2.66668701171875,30.700684375,2.70002031171875,30.700684375,2.70002031171875C30.700684375,2.70002031171875,30.700684375,2.70002031171875,30.700684375,2.70002031171875ZM30.700684375,13.36668701171875C30.700684375,13.36668701171875,30.700684375,13.39998701171875,30.700684375,13.39998701171875C30.700684375,13.39998701171875,30.733984375,13.39998701171875,30.733984375,13.39998701171875C30.733984375,13.39998701171875,30.733984375,13.36668701171875,30.733984375,13.36668701171875C30.733984375,13.36668701171875,30.700684375,13.36668701171875,30.700684375,13.36668701171875C30.700684375,13.36668701171875,30.700684375,13.36668701171875,30.700684375,13.36668701171875ZM17.367317675,13.36668701171875C17.367317675,13.36668701171875,17.333984375,13.36668701171875,17.333984375,13.36668701171875C17.333984375,13.36668701171875,17.333984375,13.39998701171875,17.333984375,13.39998701171875C17.333984375,13.39998701171875,17.367317675,13.39998701171875,17.367317675,13.39998701171875C17.367317675,13.39998701171875,17.367317675,13.36668701171875,17.367317675,13.36668701171875C17.367317675,13.36668701171875,17.367317675,13.36668701171875,17.367317675,13.36668701171875ZM17.367317675,2.73335371171875C17.367317675,2.73335371171875,30.700684375,2.73335371171875,30.700684375,2.73335371171875C30.700684375,2.73335371171875,30.700684375,2.66668701171875,30.700684375,2.66668701171875C30.700684375,2.66668701171875,17.367317675,2.66668701171875,17.367317675,2.66668701171875C17.367317675,2.66668701171875,17.367317675,2.73335371171875,17.367317675,2.73335371171875C17.367317675,2.73335371171875,17.367317675,2.73335371171875,17.367317675,2.73335371171875ZM30.667284375,2.70002031171875C30.667284375,2.70002031171875,30.667284375,13.36668701171875,30.667284375,13.36668701171875C30.667284375,13.36668701171875,30.733984375,13.36668701171875,30.733984375,13.36668701171875C30.733984375,13.36668701171875,30.733984375,2.70002031171875,30.733984375,2.70002031171875C30.733984375,2.70002031171875,30.667284375,2.70002031171875,30.667284375,2.70002031171875C30.667284375,2.70002031171875,30.667284375,2.70002031171875,30.667284375,2.70002031171875ZM30.700684375,13.33338701171875C30.700684375,13.33338701171875,17.367317675,13.33338701171875,17.367317675,13.33338701171875C17.367317675,13.33338701171875,17.367317675,13.39998701171875,17.367317675,13.39998701171875C17.367317675,13.39998701171875,30.700684375,13.39998701171875,30.700684375,13.39998701171875C30.700684375,13.39998701171875,30.700684375,13.33338701171875,30.700684375,13.33338701171875C30.700684375,13.33338701171875,30.700684375,13.33338701171875,30.700684375,13.33338701171875ZM17.400651075,13.36668701171875C17.400651075,13.36668701171875,17.400651075,2.70002031171875,17.400651075,2.70002031171875C17.400651075,2.70002031171875,17.333984375,2.70002031171875,17.333984375,2.70002031171875C17.333984375,2.70002031171875,17.333984375,13.36668701171875,17.333984375,13.36668701171875C17.333984375,13.36668701171875,17.400651075,13.36668701171875,17.400651075,13.36668701171875C17.400651075,13.36668701171875,17.400651075,13.36668701171875,17.400651075,13.36668701171875Z" fill="#AD96BC" fill-opacity="1"/></g><g><path d="M18.699348925,1.36664628828125C18.699348925,1.36664628828125,18.699348925,1.33331298828125,18.699348925,1.33331298828125C18.699348925,1.33331298828125,18.666015625,1.33331298828125,18.666015625,1.33331298828125C18.666015625,1.33331298828125,18.666015625,1.36664628828125,18.666015625,1.36664628828125C18.666015625,1.36664628828125,18.699348925,1.36664628828125,18.699348925,1.36664628828125C18.699348925,1.36664628828125,18.699348925,1.36664628828125,18.699348925,1.36664628828125ZM29.366015625,1.36664628828125C29.366015625,1.36664628828125,29.399315625,1.36664628828125,29.399315625,1.36664628828125C29.399315625,1.36664628828125,29.399315625,1.33331298828125,29.399315625,1.33331298828125C29.399315625,1.33331298828125,29.366015625,1.33331298828125,29.366015625,1.33331298828125C29.366015625,1.33331298828125,29.366015625,1.36664628828125,29.366015625,1.36664628828125C29.366015625,1.36664628828125,29.366015625,1.36664628828125,29.366015625,1.36664628828125ZM29.366015625,14.70001298828125C29.366015625,14.70001298828125,29.366015625,14.73331298828125,29.366015625,14.73331298828125C29.366015625,14.73331298828125,29.399315625,14.73331298828125,29.399315625,14.73331298828125C29.399315625,14.73331298828125,29.399315625,14.70001298828125,29.399315625,14.70001298828125C29.399315625,14.70001298828125,29.366015625,14.70001298828125,29.366015625,14.70001298828125C29.366015625,14.70001298828125,29.366015625,14.70001298828125,29.366015625,14.70001298828125ZM18.699348925,14.70001298828125C18.699348925,14.70001298828125,18.666015625,14.70001298828125,18.666015625,14.70001298828125C18.666015625,14.70001298828125,18.666015625,14.73331298828125,18.666015625,14.73331298828125C18.666015625,14.73331298828125,18.699348925,14.73331298828125,18.699348925,14.73331298828125C18.699348925,14.73331298828125,18.699348925,14.70001298828125,18.699348925,14.70001298828125C18.699348925,14.70001298828125,18.699348925,14.70001298828125,18.699348925,14.70001298828125ZM18.699348925,1.39997968828125C18.699348925,1.39997968828125,29.366015625,1.39997968828125,29.366015625,1.39997968828125C29.366015625,1.39997968828125,29.366015625,1.33331298828125,29.366015625,1.33331298828125C29.366015625,1.33331298828125,18.699348925,1.33331298828125,18.699348925,1.33331298828125C18.699348925,1.33331298828125,18.699348925,1.39997968828125,18.699348925,1.39997968828125C18.699348925,1.39997968828125,18.699348925,1.39997968828125,18.699348925,1.39997968828125ZM29.332715625,1.36664628828125C29.332715625,1.36664628828125,29.332715625,14.70001298828125,29.332715625,14.70001298828125C29.332715625,14.70001298828125,29.399315625,14.70001298828125,29.399315625,14.70001298828125C29.399315625,14.70001298828125,29.399315625,1.36664628828125,29.399315625,1.36664628828125C29.399315625,1.36664628828125,29.332715625,1.36664628828125,29.332715625,1.36664628828125C29.332715625,1.36664628828125,29.332715625,1.36664628828125,29.332715625,1.36664628828125ZM29.366015625,14.66661298828125C29.366015625,14.66661298828125,18.699348925,14.66661298828125,18.699348925,14.66661298828125C18.699348925,14.66661298828125,18.699348925,14.73331298828125,18.699348925,14.73331298828125C18.699348925,14.73331298828125,29.366015625,14.73331298828125,29.366015625,14.73331298828125C29.366015625,14.73331298828125,29.366015625,14.66661298828125,29.366015625,14.66661298828125C29.366015625,14.66661298828125,29.366015625,14.66661298828125,29.366015625,14.66661298828125ZM18.732682325,14.70001298828125C18.732682325,14.70001298828125,18.732682325,1.36664628828125,18.732682325,1.36664628828125C18.732682325,1.36664628828125,18.666015625,1.36664628828125,18.666015625,1.36664628828125C18.666015625,1.36664628828125,18.666015625,14.70001298828125,18.666015625,14.70001298828125C18.666015625,14.70001298828125,18.732682325,14.70001298828125,18.732682325,14.70001298828125C18.732682325,14.70001298828125,18.732682325,14.70001298828125,18.732682325,14.70001298828125Z" fill="#AD96BC" fill-opacity="1"/></g><g><path d="M30.667284375,8.03331298828125C30.667284375,11.69681298828125,27.697484375000002,14.66661298828125,24.033984375,14.66661298828125C24.033984375,14.66661298828125,24.033984375,14.73331298828125,24.033984375,14.73331298828125C27.734284375,14.73331298828125,30.733984375,11.73361298828125,30.733984375,8.03331298828125C30.733984375,8.03331298828125,30.667284375,8.03331298828125,30.667284375,8.03331298828125C30.667284375,8.03331298828125,30.667284375,8.03331298828125,30.667284375,8.03331298828125ZM24.033984375,14.66661298828125C20.370494375,14.66661298828125,17.400651075,11.69681298828125,17.400651075,8.03331298828125C17.400651075,8.03331298828125,17.333984375,8.03331298828125,17.333984375,8.03331298828125C17.333984375,11.73361298828125,20.333674375,14.73331298828125,24.033984375,14.73331298828125C24.033984375,14.73331298828125,24.033984375,14.66661298828125,24.033984375,14.66661298828125C24.033984375,14.66661298828125,24.033984375,14.66661298828125,24.033984375,14.66661298828125ZM17.400651075,8.03331298828125C17.400651075,4.36982298828125,20.370494375,1.39997968828125,24.033984375,1.39997968828125C24.033984375,1.39997968828125,24.033984375,1.33331298828125,24.033984375,1.33331298828125C20.333674375,1.33331298828125,17.333984375,4.33300298828125,17.333984375,8.03331298828125C17.333984375,8.03331298828125,17.400651075,8.03331298828125,17.400651075,8.03331298828125C17.400651075,8.03331298828125,17.400651075,8.03331298828125,17.400651075,8.03331298828125ZM24.033984375,1.39997968828125C27.697484375000002,1.39997968828125,30.667284375,4.36982298828125,30.667284375,8.03331298828125C30.667284375,8.03331298828125,30.733984375,8.03331298828125,30.733984375,8.03331298828125C30.733984375,4.33300298828125,27.734284375,1.33331298828125,24.033984375,1.33331298828125C24.033984375,1.33331298828125,24.033984375,1.39997968828125,24.033984375,1.39997968828125C24.033984375,1.39997968828125,24.033984375,1.39997968828125,24.033984375,1.39997968828125Z" fill="#AD96BC" fill-opacity="1"/></g><g><path d="M17.3908905,14.72357861328125C17.3908905,14.72357861328125,30.724249999999998,1.39021911328125,30.724249999999998,1.39021911328125C30.724249999999998,1.39021911328125,30.67705,1.34307861328125,30.67705,1.34307861328125C30.67705,1.34307861328125,17.34375,14.67637861328125,17.34375,14.67637861328125C17.34375,14.67637861328125,17.3908905,14.72357861328125,17.3908905,14.72357861328125C17.3908905,14.72357861328125,17.3908905,14.72357861328125,17.3908905,14.72357861328125Z" fill="#AD96BC" fill-opacity="1"/></g><g><path d="M30.724249999999998,14.67637861328125C30.724249999999998,14.67637861328125,17.3908905,1.34307861328125,17.3908905,1.34307861328125C17.3908905,1.34307861328125,17.34375,1.39021911328125,17.34375,1.39021911328125C17.34375,1.39021911328125,30.67705,14.72357861328125,30.67705,14.72357861328125C30.67705,14.72357861328125,30.724249999999998,14.67637861328125,30.724249999999998,14.67637861328125C30.724249999999998,14.67637861328125,30.724249999999998,14.67637861328125,30.724249999999998,14.67637861328125Z" fill="#AD96BC" fill-opacity="1"/></g><g><path d="M17.3671875,8.0666667C17.3671875,8.0666667,30.7004875,8.0666667,30.7004875,8.0666667C30.7004875,8.0666667,30.7004875,8,30.7004875,8C30.7004875,8,17.3671875,8,17.3671875,8C17.3671875,8,17.3671875,8.0666667,17.3671875,8.0666667C17.3671875,8.0666667,17.3671875,8.0666667,17.3671875,8.0666667Z" fill="#AD96BC" fill-opacity="1"/></g><g><path d="M24,1.36651611328125C24,1.36651611328125,24,14.69981611328125,24,14.69981611328125C24,14.69981611328125,24.0666667,14.69981611328125,24.0666667,14.69981611328125C24.0666667,14.69981611328125,24.0666667,1.36651611328125,24.0666667,1.36651611328125C24.0666667,1.36651611328125,24,1.36651611328125,24,1.36651611328125C24,1.36651611328125,24,1.36651611328125,24,1.36651611328125Z" fill="#AD96BC" fill-opacity="1"/></g><g><path d="M24.033728125,1.36663856328125C24.033728125,1.36663856328125,24.062558125,1.34993736328125,24.062558125,1.34993736328125C24.062558125,1.34993736328125,24.033728125,1.30010986328125,24.033728125,1.30010986328125C24.033728125,1.30010986328125,24.004898125,1.34993736328125,24.004898125,1.34993736328125C24.004898125,1.34993736328125,24.033728125,1.36663856328125,24.033728125,1.36663856328125C24.033728125,1.36663856328125,24.033728125,1.36663856328125,24.033728125,1.36663856328125ZM16.700393125,14.03330986328125C16.700393125,14.03330986328125,16.671545625,14.01660986328125,16.671545625,14.01660986328125C16.671545625,14.01660986328125,16.642578125,14.06660986328125,16.642578125,14.06660986328125C16.642578125,14.06660986328125,16.700393125,14.06660986328125,16.700393125,14.06660986328125C16.700393125,14.06660986328125,16.700393125,14.03330986328125,16.700393125,14.03330986328125C16.700393125,14.03330986328125,16.700393125,14.03330986328125,16.700393125,14.03330986328125ZM31.367078125,14.03330986328125C31.367078125,14.03330986328125,31.367078125,14.06660986328125,31.367078125,14.06660986328125C31.367078125,14.06660986328125,31.424878125,14.06660986328125,31.424878125,14.06660986328125C31.424878125,14.06660986328125,31.395878125,14.01660986328125,31.395878125,14.01660986328125C31.395878125,14.01660986328125,31.367078125,14.03330986328125,31.367078125,14.03330986328125C31.367078125,14.03330986328125,31.367078125,14.03330986328125,31.367078125,14.03330986328125ZM24.004898125,1.34993736328125C24.004898125,1.34993736328125,16.671545625,14.01660986328125,16.671545625,14.01660986328125C16.671545625,14.01660986328125,16.729240625,14.05000986328125,16.729240625,14.05000986328125C16.729240625,14.05000986328125,24.062558125,1.38333976328125,24.062558125,1.38333976328125C24.062558125,1.38333976328125,24.004898125,1.34993736328125,24.004898125,1.34993736328125C24.004898125,1.34993736328125,24.004898125,1.34993736328125,24.004898125,1.34993736328125ZM16.700393125,14.06660986328125C16.700393125,14.06660986328125,31.367078125,14.06660986328125,31.367078125,14.06660986328125C31.367078125,14.06660986328125,31.367078125,14.00000986328125,31.367078125,14.00000986328125C31.367078125,14.00000986328125,16.700393125,14.00000986328125,16.700393125,14.00000986328125C16.700393125,14.00000986328125,16.700393125,14.06660986328125,16.700393125,14.06660986328125C16.700393125,14.06660986328125,16.700393125,14.06660986328125,16.700393125,14.06660986328125ZM31.395878125,14.01660986328125C31.395878125,14.01660986328125,24.062558125,1.34993736328125,24.062558125,1.34993736328125C24.062558125,1.34993736328125,24.004898125,1.38333976328125,24.004898125,1.38333976328125C24.004898125,1.38333976328125,31.338178125,14.05000986328125,31.338178125,14.05000986328125C31.338178125,14.05000986328125,31.395878125,14.01660986328125,31.395878125,14.01660986328125C31.395878125,14.01660986328125,31.395878125,14.01660986328125,31.395878125,14.01660986328125Z" fill="#AD96BC" fill-opacity="1"/></g></g><g transform="matrix(0.7071067690849304,-0.7071067690849304,0.7071067690849304,0.7071067690849304,-0.5186611693352461,14.814246555091813)"><path d="M24.956376875,9.366533125C25.324576874999998,9.366533125,25.623046875,9.068063125,25.623046875,8.699870125C25.623046875,8.331680125,25.324576874999998,8.033203125,24.956376875,8.033203125C24.956376875,8.033203125,24.956376875,9.366533125,24.956376875,9.366533125C24.956376875,9.366533125,24.956376875,9.366533125,24.956376875,9.366533125ZM17.623046875,15.366533125C17.623046875,15.734733125,17.921523875,16.033203125,18.289713875,16.033203125C18.657906875,16.033203125,18.956376875,15.734733125,18.956376875,15.366533125C18.956376875,15.366533125,17.623046875,15.366533125,17.623046875,15.366533125C17.623046875,15.366533125,17.623046875,15.366533125,17.623046875,15.366533125ZM19.289716875,9.366533125C19.289716875,9.366533125,24.956376875,9.366533125,24.956376875,9.366533125C24.956376875,9.366533125,24.956376875,8.033203125,24.956376875,8.033203125C24.956376875,8.033203125,19.289716875,8.033203125,19.289716875,8.033203125C19.289716875,8.033203125,19.289716875,9.366533125,19.289716875,9.366533125C19.289716875,9.366533125,19.289716875,9.366533125,19.289716875,9.366533125ZM18.956376875,15.366533125C18.956376875,15.366533125,18.956376875,9.699873125,18.956376875,9.699873125C18.956376875,9.699873125,17.623046875,9.699873125,17.623046875,9.699873125C17.623046875,9.699873125,17.623046875,15.366533125,17.623046875,15.366533125C17.623046875,15.366533125,18.956376875,15.366533125,18.956376875,15.366533125C18.956376875,15.366533125,18.956376875,15.366533125,18.956376875,15.366533125ZM19.289716875,8.033203125C18.369238875,8.033203125,17.623046875,8.779395125,17.623046875,9.699873125C17.623046875,9.699873125,18.956376875,9.699873125,18.956376875,9.699873125C18.956376875,9.515773124999999,19.105616875,9.366533125,19.289716875,9.366533125C19.289716875,9.366533125,19.289716875,8.033203125,19.289716875,8.033203125C19.289716875,8.033203125,19.289716875,8.033203125,19.289716875,8.033203125Z" fill="#956E7D" fill-opacity="1"/></g></g></svg>