<svg width="18" height="18" viewBox="0 0 18 18" fill="none" xmlns="http://www.w3.org/2000/svg">
<path fill-rule="evenodd" clip-rule="evenodd" d="M11 2.28988C10.3663 2.10128 9.69497 2 9 2C5.13401 2 2 5.13401 2 9C2 12.866 5.13401 16 9 16C12.866 16 16 12.866 16 9C16 8.66048 15.9758 8.3266 15.9291 8H14.917C14.9716 8.32521 15 8.65929 15 9C15 12.3137 12.3137 15 9 15C5.68629 15 3 12.3137 3 9C3 5.68629 5.68629 3 9 3C9.70127 3 10.3744 3.12031 11 3.34141V2.28988Z" fill="#068DA5"/>
<path d="M6.00005 7.46163L9.05494 10.9504L16.5 3" stroke="#068DA5" stroke-linecap="round" stroke-linejoin="round"/>
</svg>
