<svg width="20" height="20" viewBox="0 0 20 20" fill="none" xmlns="http://www.w3.org/2000/svg">
<path fill-rule="evenodd" clip-rule="evenodd" d="M5.52032 2.14634C6.292 2.08476 7.02459 1.78131 7.61379 1.27919C8.98876 0.107456 11.011 0.107456 12.386 1.27919C12.9752 1.78131 13.7078 2.08476 14.4795 2.14634C16.2803 2.29004 17.7103 3.72002 17.854 5.52081C17.9155 6.29249 18.219 7.02508 18.7211 7.61428C19.8928 8.98925 19.8928 11.0115 18.7211 12.3865C18.219 12.9757 17.9155 13.7083 17.854 14.48C17.7103 16.2808 16.2803 17.7107 14.4795 17.8544C13.7078 17.916 12.9752 18.2195 12.386 18.7216C11.011 19.8933 8.98876 19.8933 7.61379 18.7216C7.02459 18.2195 6.292 17.916 5.52032 17.8544C3.71953 17.7107 2.28955 16.2808 2.14585 14.48C2.08427 13.7083 1.78082 12.9757 1.2787 12.3865C0.106968 11.0115 0.106968 8.98925 1.2787 7.61428C1.78082 7.02508 2.08427 6.29249 2.14585 5.52081C2.28955 3.72002 3.71953 2.29004 5.52032 2.14634ZM14.4484 8.44892C14.9171 7.98029 14.9171 7.22049 14.4484 6.75186C13.9798 6.28323 13.22 6.28323 12.7514 6.75186L8.7999 10.7033L7.24843 9.15186C6.7798 8.68323 6.02 8.68323 5.55137 9.15186C5.08275 9.62049 5.08275 10.3803 5.55137 10.8489L7.95137 13.2489C8.42 13.7175 9.1798 13.7175 9.64843 13.2489L14.4484 8.44892Z" fill="#111827"/>
</svg>
