<svg width="46" height="46" viewBox="0 0 46 46" fill="none" xmlns="http://www.w3.org/2000/svg">
<rect x="0.5" y="0.299805" width="45" height="45" rx="22.5" fill="url(#paint0_linear_55882_28273)"/>
<path d="M23.4726 13.2972C23.1707 13.1679 22.8291 13.1679 22.5272 13.2972L14.1272 16.8972C13.686 17.0863 13.3999 17.5202 13.3999 18.0002C13.3999 18.4802 13.686 18.9141 14.1272 19.1032L17.3004 20.4631C17.4157 20.3324 17.5604 20.2259 17.7272 20.1544L22.5272 18.0972C23.1364 17.8362 23.8418 18.1184 24.1029 18.7275C24.3639 19.3367 24.0818 20.0421 23.4726 20.3032L20.1999 21.7058L22.5272 22.7032C22.8291 22.8325 23.1707 22.8325 23.4726 22.7032L31.8726 19.1032C32.3138 18.9141 32.5999 18.4802 32.5999 18.0002C32.5999 17.5202 32.3138 17.0863 31.8726 16.8972L23.4726 13.2972Z" fill="white"/>
<path d="M14.972 22.0763L16.9999 22.9454V27.8674C16.5886 27.7741 16.1684 27.7043 15.7408 27.6594C15.177 27.6003 14.7315 27.1548 14.6724 26.5911C14.6245 26.1336 14.5999 25.6695 14.5999 25.2C14.5999 24.1242 14.7288 23.078 14.972 22.0763Z" fill="white"/>
<path d="M22.1599 30.6872C21.3524 29.8956 20.4219 29.2303 19.3999 28.7223V23.974L21.5818 24.9091C22.4874 25.2972 23.5124 25.2972 24.418 24.9091L31.0278 22.0763C31.271 23.078 31.3999 24.1242 31.3999 25.2C31.3999 25.6695 31.3753 26.1336 31.3274 26.5911C31.2683 27.1548 30.8228 27.6003 30.2591 27.6594C27.7717 27.9202 25.5348 29.0257 23.84 30.6872C23.3733 31.1446 22.6265 31.1446 22.1599 30.6872Z" fill="white"/>
<path d="M18.1999 32.4002C18.8626 32.4002 19.3999 31.8629 19.3999 31.2002V28.7223C18.6455 28.3474 17.8413 28.0582 16.9999 27.8674V31.2002C16.9999 31.8629 17.5372 32.4002 18.1999 32.4002Z" fill="white"/>
<defs>
<linearGradient id="paint0_linear_55882_28273" x1="0.216522" y1="38.8751" x2="47.1091" y2="36.808" gradientUnits="userSpaceOnUse">
<stop stop-color="#50C98C"/>
<stop offset="0.4986" stop-color="#8BBBB7"/>
<stop offset="1" stop-color="#84C4B5"/>
</linearGradient>
</defs>
</svg>
