<svg width="46" height="46" viewBox="0 0 46 46" fill="none" xmlns="http://www.w3.org/2000/svg">
<rect x="0.5" y="0.5" width="45" height="45" rx="22.5" fill="black" fill-opacity="0.2"/>
<path d="M23.4726 13.4974C23.1707 13.368 22.8291 13.368 22.5272 13.4974L14.1272 17.0974C13.686 17.2865 13.3999 17.7204 13.3999 18.2004C13.3999 18.6804 13.686 19.1143 14.1272 19.3034L17.3004 20.6633C17.4157 20.5325 17.5604 20.4261 17.7272 20.3546L22.5272 18.2974C23.1364 18.0364 23.8418 18.3185 24.1029 18.9277C24.3639 19.5369 24.0818 20.2423 23.4726 20.5034L20.1999 21.906L22.5272 22.9034C22.8291 23.0327 23.1707 23.0327 23.4726 22.9034L31.8726 19.3034C32.3138 19.1143 32.5999 18.6804 32.5999 18.2004C32.5999 17.7204 32.3138 17.2865 31.8726 17.0974L23.4726 13.4974Z" fill="white"/>
<path d="M14.972 22.2765L16.9999 23.1456V28.0676C16.5886 27.9743 16.1684 27.9045 15.7408 27.8596C15.177 27.8005 14.7315 27.355 14.6724 26.7913C14.6245 26.3338 14.5999 25.8696 14.5999 25.4002C14.5999 24.3244 14.7288 23.2782 14.972 22.2765Z" fill="white"/>
<path d="M22.1599 30.8874C21.3524 30.0958 20.4219 29.4305 19.3999 28.9225V24.1742L21.5818 25.1093C22.4874 25.4974 23.5124 25.4974 24.418 25.1093L31.0278 22.2765C31.271 23.2782 31.3999 24.3244 31.3999 25.4002C31.3999 25.8696 31.3753 26.3338 31.3274 26.7913C31.2683 27.355 30.8228 27.8005 30.2591 27.8596C27.7717 28.1204 25.5348 29.2259 23.84 30.8874C23.3733 31.3448 22.6265 31.3448 22.1599 30.8874Z" fill="white"/>
<path d="M18.1999 32.6004C18.8626 32.6004 19.3999 32.0631 19.3999 31.4004V28.9225C18.6455 28.5476 17.8413 28.2584 16.9999 28.0676V31.4004C16.9999 32.0631 17.5372 32.6004 18.1999 32.6004Z" fill="white"/>
</svg>
