<svg xmlns="http://www.w3.org/2000/svg" xmlns:xlink="http://www.w3.org/1999/xlink" fill="none" version="1.1" width="23" height="20" viewBox="0 0 23 20"><g><g></g><g><path d="M17.0846,4.02093L12.1044,2.0401046C12.0407,2.0143718,11.972,2.000739881,11.9025,2.0000105381C11.7453,1.999041387,11.5963,2.0651514,11.4984,2.17934L10.0755,3.82593C9.98116,3.9390099999999997,9.943,4.08395,9.97046,4.22468C9.98025,4.26796,9.99804,4.30933,10.0231,4.34697L5.7806,5.82316C5.37214,5.968999999999999,5.02654,6.23536,4.79693,6.5813L3.32082,8.86265C2.97834,9.38442,2.95185,10.02009,3.24232,10.57448L1.94187,10.57448C1.65589,10.57478,1.42408,10.78987,1.42354,11.05542L1.42354,17.1769L0.518953,17.1769C0.232507,17.1764,0,17.3918,0,17.6578C0,17.9238,0.232508,18.1393,0.518953,18.1388L12.6139,18.1388C12.9004,18.1393,13.1329,17.9238,13.1329,17.6578C13.1329,17.3918,12.9004,17.176299999999998,12.6139,17.1769L11.7092,17.1769L11.7092,12.7018C12.5172,12.1802,13.2023,11.48735,13.7644,10.64774C14.8274,9.0664,15.4509,7.76225,15.7406,7.10288C15.8781,7.15133,16.024,7.17603,16.171,7.17578C16.398,7.17697,16.6206,7.11757,16.8122,7.00465C17.173,6.796,17.3922,6.42921,17.392,6.03456L17.392,4.460319999999999C17.4008,4.2727900000000005,17.2778,4.10167,17.0844,4.0202L17.0846,4.02093ZM7.78289,9.082799999999999C8.09024,9.2402,8.41788,9.36072,8.75793,9.44146C8.56461,9.67838,8.187,10.15859,7.97621,10.5907L6.64986,10.5907C6.58823,10.37875,6.48284,10.175,6.34231,9.97106C6.62356,9.84878,7.33502,9.51454,7.78289,9.08262L7.78289,9.082799999999999ZM5.63085,11.97649C4.77447,12.4883,4.53353,13.5513,5.09505,14.3402C5.4287,14.813,5.991,15.0902,6.60629,15.0902C6.93387,15.0899,7.25539,15.0081,7.53737,14.8532L9.96162,13.5001C10.2054,13.4395,10.4434,13.3603,10.6731,13.2631L10.6731,17.1933L2.45118,17.1933L2.45118,11.54366L6.35919,11.54366C6.1221,11.68217,5.86735,11.82887,5.63007,11.97576L5.63085,11.97649ZM9.66252,12.5795C9.60705,12.5901,9.55395,12.6094,9.5055,12.6366L7.01079,14.0217C6.88825,14.0887,6.7491,14.1252,6.60688,14.1275C6.10565,14.1306,5.72977,13.7026,5.83379,13.2473C5.87609,13.0537,6.00351,12.8853,6.1853,12.7827C7.20313,12.1802,7.94089,11.76454,8.38071,11.55259C8.38954,11.55259,8.38954,11.54439,8.39838,11.54439C8.66196,11.51997,8.85508,11.33244,8.86392,11.10427C8.90788,10.92494,9.51394,10.00387,10.1375,9.42506C10.286,9.28883,10.3311,9.08275,10.2517,8.90347C10.1733,8.724599999999999,9.98528,8.60829,9.77733,8.610050000000001C8.74086,8.610050000000001,7.96797,8.063320000000001,7.96797,8.05566C7.80114,7.93338,7.59016,7.90075,7.42334,7.9742C7.26155,8.04212,7.15105,8.18501,7.13345,8.34908C6.97546,8.57743,5.76333,9.23771,5.49975,9.270150000000001C5.29122,9.27422,5.10635,9.39574,5.03289,9.57701C4.95944,9.75828,5.01219,9.96282,5.1661,10.09353C5.32536,10.23879,5.45877,10.4066,5.56138,10.5907L4.41009,10.5907L4.19047,10.18283C4.04975,9.922039999999999,4.05858,9.62042,4.2256,9.37585L5.70112,7.09377C5.80651,6.93084,5.97353,6.80856,6.15782,6.73511L11.1734,4.99084L14.8274,6.68572C14.5462,7.32978,13.9315,8.60951,12.904,10.15805C11.5337,12.1959,9.68921,12.571,9.66271,12.579L9.66252,12.5795ZM16.3646,4.77944L16.3646,6.03474C16.3648,6.09882,16.3278,6.15804,16.2678,6.18965C16.2354,6.20577,16.1992,6.21416,16.1624,6.21407C16.1324,6.21253,16.1028,6.20707,16.0745,6.19785L11.2699,3.9719100000000003L12.0518,3.0670599999999997L16.3646,4.77944Z" fill="#AD96BC" fill-opacity="1"/></g></g></svg>