<svg width="68" height="68" viewBox="0 0 68 68" fill="none" xmlns="http://www.w3.org/2000/svg">
<rect width="68" height="68" rx="8" fill="#EFF9FE"/>
<circle cx="34" cy="34" r="18" fill="#42A2F4"/>
<mask id="mask0_56774_30595" style="mask-type:alpha" maskUnits="userSpaceOnUse" x="16" y="16" width="36" height="36">
<circle cx="34" cy="34" r="18" fill="#42A2F4"/>
</mask>
<g mask="url(#mask0_56774_30595)">
<path d="M25.5 38.0001L19.5 45.0001L22 55.5001L45.5 54.0001L53.5 37.0001L44.3 26.1001L34.6 27.1001L38.5 33.0001L32.5 39.5001L25.5 38.0001Z" fill="#046EC5"/>
<path d="M40.5032 34.646L42.2043 32.814L38.5404 29.4118L36.8392 31.2437L40.5032 34.646ZM26.1712 36.9449L27.2893 34.7088L25.6285 33.8784L24.3537 35.2283L26.1712 36.9449ZM32.1712 39.9449L31.0532 42.1809L32.7286 43.0186L34.0032 41.646L32.1712 39.9449ZM19.4889 47.6614L27.9888 38.6614L24.3537 35.2283L15.8538 44.2283L19.4889 47.6614ZM25.0532 39.1809L31.0532 42.1809L33.2893 37.7088L27.2893 34.7088L25.0532 39.1809ZM34.0032 41.646L40.5032 34.646L36.8392 31.2437L30.3392 38.2437L34.0032 41.646Z" fill="#FEEB80"/>
<path d="M44.3424 26.0481L45.583 35.8112L34.5537 27.0676L44.3424 26.0481Z" fill="#FEEB80"/>
<path d="M26 37.5L19 44.5L20.1128 47.0553L26.7174 40.0078L32.7344 43.0195L42.0391 33.0039L45.582 35.8047L44.3432 26.0542L32 40L26 37.5Z" fill="#FFCF6D"/>
</g>
</svg>
