<svg
    width="18"
    height="18"
    viewBox="0 0 18 18"
    fill="none"
    xmlns="http://www.w3.org/2000/svg"
  >
    <path
      d="M13 11V14C13 14.5523 12.553 15 12.0007 15C10.3159 15 6.81832 15 3.99894 15C3.44666 15 3 14.5523 3 14V6C3 5.44772 3.44772 5 4 5H7"
      stroke="black"
      stroke-width="1.2"
      stroke-linecap="round"
    />
    <path
      fill-rule="evenodd"
      clip-rule="evenodd"
      d="M14.4062 3.14853C14.7169 3.14853 14.9724 3.38463 15.0031 3.68718C15.0052 3.70735 15.0062 3.72782 15.0062 3.74853L15.0062 8.54853C15.0062 8.8799 14.7376 9.14853 14.4062 9.14853C14.0749 9.14853 13.8062 8.8799 13.8062 8.54853V5.19705L7.17602 11.8273C6.94171 12.0616 6.56181 12.0616 6.32749 11.8273C6.09318 11.5929 6.09318 11.213 6.32749 10.9787L12.9577 4.34853H9.60623C9.27485 4.34853 9.00623 4.0799 9.00623 3.74853C9.00623 3.41716 9.27485 3.14853 9.60623 3.14853L14.4062 3.14853Z"
      fill="black"
    />
  </svg>