<svg
    width="18"
    height="18"
    viewBox="0 0 18 18"
    fill="none"
    xmlns="http://www.w3.org/2000/svg"
  >
    <path
      d="M3 12V13.5C3 14.0523 3.44684 14.5 3.99913 14.5C7.53093 14.5 12.0331 14.5 14.0024 14.5C14.5546 14.5 15 14.0523 15 13.5V12"
      stroke="black"
      stroke-width="1.2"
      stroke-linecap="round"
    />
    <path
      d="M9.6 4C9.6 3.66863 9.33137 3.4 9 3.4C8.66863 3.4 8.4 3.66863 8.4 4L9.6 4ZM8.57574 12.4243C8.81005 12.6586 9.18995 12.6586 9.42426 12.4243L13.2426 8.60589C13.477 8.37157 13.477 7.99167 13.2426 7.75736C13.0083 7.52304 12.6284 7.52304 12.3941 7.75736L9 11.1515L5.60589 7.75736C5.37157 7.52304 4.99167 7.52304 4.75736 7.75736C4.52304 7.99167 4.52304 8.37157 4.75736 8.60589L8.57574 12.4243ZM8.4 4L8.4 12L9.6 12L9.6 4L8.4 4Z"
      fill="black"
    />
  </svg>