<svg
    xmlns="http://www.w3.org/2000/svg"
    width="18"
    height="18"
    viewBox="0 0 18 18"
    fill="none"
  >
    <path
      d="M2.69995 15.0001C2.69995 15.2763 2.92381 15.5001 3.19995 15.5001H14.8C15.0761 15.5001 15.3 15.2763 15.3 15.0001V11.5001H2.69995V15.0001Z"
      fill="#00A7EA"
    />
    <path
      d="M4.89036 4.35098C4.95559 4.14225 5.1489 4.00012 5.3676 4.00012H12.6324C12.8511 4.00012 13.0444 4.14225 13.1096 4.35098L15.2971 11.351C15.3978 11.6729 15.1572 12.0001 14.8199 12.0001H3.1801C2.84278 12.0001 2.60224 11.6729 2.70286 11.351L4.89036 4.35098Z"
      fill="#99DCF7"
    />
    <rect x="6" y="6.00012" width="6" height="1" rx="0.5" fill="white" />
    <rect x="5" y="8.50012" width="8" height="1" rx="0.5" fill="white" />
  </svg>